<?xml version="1.0" encoding="UTF-8"?>
<svg width="125px" height="37px" viewBox="0 0 125 37" version="1.1" xmlns="http://www.w3.org/2000/svg" xmlns:xlink="http://www.w3.org/1999/xlink">
    <title>Group 2</title>
    <g id="ðŸ“–-Booking-Flow" stroke="none" stroke-width="1" fill="none" fill-rule="evenodd">
        <g id="Services---Selected-+-Toast" transform="translate(-394.000000, -36.000000)" fill="#000000" fill-rule="nonzero">
            <g id="Toast-Notification" transform="translate(20.000000, 20.000000)">
                <g id="Group-2" transform="translate(374.749999, 15.998377)">
                    <g id="ï¢-copy-3" transform="translate(0.000000, 7.751623)">
                        <path d="M0.6875,4.8125 L3.4375,4.8125 L3.4375,7.5625 C3.4375,7.94062448 3.74687552,8.25 4.125,8.25 C4.50312448,8.25 4.8125,7.94251537 4.8125,7.5625 L4.8125,4.8125 L7.5625,4.8125 C7.94062448,4.8125 8.25,4.50312448 8.25,4.125 C8.25,3.74687552 7.94251537,3.4375 7.5625,3.4375 L4.8125,3.4375 L4.8125,0.6875 C4.8125,0.307484627 4.50312448,0 4.125,0 C3.74687552,0 3.4375,0.307484627 3.4375,0.6875 L3.4375,3.4375 L0.6875,3.4375 C0.309375525,3.4375 0,3.74515641 0,4.125 C0,4.50484359 0.309375525,4.8125 0.6875,4.8125 Z" id="Shape"></path>
                        <g id="Group" transform="translate(21.250001, 16.250000)">
                            <path d="M4.97774952,13 L3.87349015,13 L3.84488239,12.4138864 C3.75905912,9.78809739 2.51748252,6.96302976 0,6.96302976 L0,5.79080252 C2.71201526,5.79080252 3.76478067,2.98917944 3.84488239,0.586113616 L3.84488239,0 L4.95486332,0 L4.95486332,0.586113616 C5.03496503,2.9833183 5.99618563,5.6091073 8.46789574,5.77908025 L9,5.81424707 L9,6.91027953 L8.46789574,6.97475203 C5.99618563,7.15058611 5.03496503,10.0166817 4.94914177,12.4138864 L4.97774952,13 Z M2.1913541,6.41794409 C3.22916031,7.11441913 4.01040973,8.14574523 4.41131596,9.34851217 C4.79481605,8.13685557 5.56711769,7.09370359 6.60267006,6.38863841 C5.57589605,5.75136009 4.79875478,4.76660012 4.40559441,3.60459874 C4.00663205,4.7760805 3.22430272,5.77008398 2.1913541,6.41794409 L2.1913541,6.41794409 Z" id="Shape"></path>
                        </g>
                    </g>
                    <g id="ï¢" transform="translate(102.250000, 13.751623)">
                        <path d="M16.5,10.9828128 C16.5,10.7250003 16.3549811,10.4835161 16.118653,10.3649219 L11.2846686,7.94535172 L8.86445391,3.10191417 C8.63349688,2.63441396 7.87101662,2.63441396 7.63984454,3.10191417 L5.21640664,7.94492161 L0.381347656,10.3640624 C0.145019531,10.4457034 0,10.7250003 0,10.9828128 C0,11.2459964 0.145019531,11.4825395 0.381347656,11.6007036 L5.21533203,14.0228518 L7.63791037,18.8654292 C7.75156224,19.1039065 7.95351589,19.2457029 8.25,19.2457029 C8.46914089,19.2457029 8.74929667,19.100168 8.86230469,18.8638399 L11.284883,14.0212612 L16.1188674,11.599113 C16.3539065,11.4855464 16.5,11.2492182 16.5,10.9828128 L16.5,10.9828128 Z M10.4628906,12.8949221 C10.3286133,12.9593753 10.2211914,13.0667971 10.1567383,13.2010745 L8.25,17.015625 L6.34218776,13.2042964 C6.27773464,13.070019 6.17031276,12.9625971 6.03603542,12.898144 L2.22255886,10.9860346 L6.03710938,9.07929701 C6.17031276,9.00625026 6.27773464,8.89882839 6.34218776,8.765625 L8.25,4.95429635 L10.1578122,8.765625 C10.2222654,8.89990234 10.3296872,9.00732422 10.4639646,9.07714844 L14.2774411,10.9841018 L10.4628906,12.8949221 Z M14.4375,4.8125 L17.1875,4.8125 L17.1875,7.5625 C17.1875,7.94062448 17.4968755,8.25 17.875,8.25 C18.2531245,8.25 18.5625,7.94251537 18.5625,7.5625 L18.5625,4.8125 L21.3125,4.8125 C21.6906245,4.8125 22,4.50312448 22,4.125 C22,3.74687552 21.6925154,3.4375 21.3125,3.4375 L18.5625,3.4375 L18.5625,0.6875 C18.5625,0.307484627 18.2531245,0 17.875,0 C17.4968755,0 17.1875,0.307484627 17.1875,0.6875 L17.1875,3.4375 L14.4375,3.4375 C14.0593755,3.4375 13.75,3.74515641 13.75,4.125 C13.75,4.50484359 14.0593755,4.8125 14.4375,4.8125 Z M21.3125,17.1875 L18.5625,17.1875 L18.5625,14.4375 C18.5625,14.0574846 18.2550154,13.75 17.875,13.75 C17.4949846,13.75 17.1875,14.0574846 17.1875,14.4375 L17.1875,17.1875 L14.4375,17.1875 C14.0574846,17.1875 13.75,17.4949846 13.75,17.875 C13.75,18.2550154 14.0574846,18.5625 14.4375,18.5625 L17.1875,18.5625 L17.1875,21.3125 C17.1875,21.6925154 17.4949846,22 17.875,22 C18.2550154,22 18.5625,21.6925154 18.5625,21.3125 L18.5625,18.5625 L21.3125,18.5625 C21.6925154,18.5625 22,18.2550154 22,17.875 C22,17.4949846 21.6906245,17.1875 21.3125,17.1875 Z" id="Shape"></path>
                    </g>
                    <g id="ï€„" transform="translate(56.249819, 0.000000)">
                        <path d="M14.4408071,0.965997193 C13.7126816,0.311622117 12.7783067,-0.0265021587 11.8345573,0.0016226506 C10.6629951,0.0016226506 9.48049428,0.48287246 8.61580732,1.37599704 L8.00018194,2.00943515 L7.38455703,1.37599704 C6.51893213,0.48287246 5.33768203,0.0016226506 4.16580703,0.0016226506 C3.22205665,0.0016226506 2.2886193,0.311934922 1.53268173,0.965997193 C-0.409193255,2.64693496 -0.506380774,5.64412257 1.24424436,7.45349834 L7.28174426,13.6941237 C7.48143175,13.898498 7.73768213,14.0016227 7.99705675,14.0016227 C8.25743177,14.0016227 8.51861932,13.899529 8.71611955,13.6952481 L14.7504947,7.45462367 C16.5064323,5.64224765 16.4095562,2.64537284 14.4408071,0.965997193 Z M13.6751821,6.41099784 L8.00018194,12.2797484 L2.32330682,6.41099784 C1.31580665,5.37037275 1.07705667,3.31724784 2.51455667,2.10005996 C3.76143195,1.02068469 5.47049405,1.55318496 6.30830695,2.41787288 L8.0011194,4.16537235 L9.69361951,2.41787288 C10.5192449,1.56568477 12.2329948,1.01505992 13.4873693,2.10005996 C14.9095571,3.33287284 14.7033069,5.34849784 13.6751821,6.41099784 Z" id="Shape"></path>
                    </g>
                </g>
            </g>
        </g>
    </g>
</svg>