<?xml version="1.0" encoding="UTF-8"?>
<svg width="113px" height="40px" viewBox="0 0 113 40" version="1.1" xmlns="http://www.w3.org/2000/svg" xmlns:xlink="http://www.w3.org/1999/xlink">
    <title>Group 3</title>
    <g id="📖-Booking-Flow" stroke="none" stroke-width="1" fill="none" fill-rule="evenodd">
        <g id="Services---Selected-+-Toast" transform="translate(-919.000000, -35.000000)" fill="#000000" fill-rule="nonzero">
            <g id="Toast-Notification" transform="translate(20.000000, 20.000000)">
                <g id="Group-3" transform="translate(898.999999, 15.750000)">
                    <path d="M105.4375,4.8125 L108.1875,4.8125 L108.1875,7.5625 C108.1875,7.94062448 108.496876,8.25 108.875,8.25 C109.253124,8.25 109.5625,7.94251537 109.5625,7.5625 L109.5625,4.8125 L112.3125,4.8125 C112.690624,4.8125 113,4.50312448 113,4.125 C113,3.74687552 112.692515,3.4375 112.3125,3.4375 L109.5625,3.4375 L109.5625,0.6875 C109.5625,0.307484627 109.253124,0 108.875,0 C108.496876,0 108.1875,0.307484627 108.1875,0.6875 L108.1875,3.4375 L105.4375,3.4375 C105.059376,3.4375 104.75,3.74515641 104.75,4.125 C104.75,4.50484359 105.059376,4.8125 105.4375,4.8125 Z" id="Shape"></path>
                    <path d="M76.9777502,39.25 L75.8734908,39.25 L75.844883,38.6638864 C75.7590598,36.0380974 74.5174832,33.2130298 72.0000007,33.2130298 L72.0000007,32.0408025 C74.7120159,32.0408025 75.7647813,29.2391794 75.844883,26.8361136 L75.844883,26.25 L76.954864,26.25 L76.954864,26.8361136 C77.0349657,29.2333183 77.9961863,31.8591073 80.4678964,32.0290803 L81.0000007,32.0642471 L81.0000007,33.1602795 L80.4678964,33.224752 C77.9961863,33.4005861 77.0349657,36.2666817 76.9491424,38.6638864 L76.9777502,39.25 Z M74.1913548,32.6679441 C75.229161,33.3644191 76.0104104,34.3957452 76.4113166,35.5985122 C76.7948167,34.3868556 77.5671183,33.3437036 78.6026707,32.6386384 C77.5758967,32.0013601 76.7987554,31.0166001 76.4055951,29.8545987 C76.0066327,31.0260805 75.2243034,32.020084 74.1913548,32.6679441 L74.1913548,32.6679441 Z" id="Shape"></path>
                    <path d="M16.5,14.9828128 C16.5,14.7250003 16.3549811,14.4835161 16.118653,14.3649219 L11.2846686,11.9453517 L8.86445391,7.10191417 C8.63349688,6.63441396 7.87101662,6.63441396 7.63984454,7.10191417 L5.21640664,11.9449216 L0.381347656,14.3640624 C0.145019531,14.4457034 0,14.7250003 0,14.9828128 C0,15.2459964 0.145019531,15.4825395 0.381347656,15.6007036 L5.21533203,18.0228518 L7.63791037,22.8654292 C7.75156224,23.1039065 7.95351589,23.2457029 8.25,23.2457029 C8.46914089,23.2457029 8.74929667,23.100168 8.86230469,22.8638399 L11.284883,18.0212612 L16.1188674,15.599113 C16.3539065,15.4855464 16.5,15.2492182 16.5,14.9828128 L16.5,14.9828128 Z M10.4628906,16.8949221 C10.3286133,16.9593753 10.2211914,17.0667971 10.1567383,17.2010745 L8.25,21.015625 L6.34218776,17.2042964 C6.27773464,17.070019 6.17031276,16.9625971 6.03603542,16.898144 L2.22255886,14.9860346 L6.03710938,13.079297 C6.17031276,13.0062503 6.27773464,12.8988284 6.34218776,12.765625 L8.25,8.95429635 L10.1578122,12.765625 C10.2222654,12.8999023 10.3296872,13.0073242 10.4639646,13.0771484 L14.2774411,14.9841018 L10.4628906,16.8949221 Z" id="Shape"></path>
                    <g id="" transform="translate(39.001075, 10.996150)">
                        <path d="M18.057519,1.20345949 C15.9286127,-0.612946758 12.7411125,-0.319587002 10.7684562,1.72181844 L9.99931551,2.52689718 L9.22939397,1.72181844 C7.63955093,0.0761163142 4.42470706,-0.905915508 1.94267548,1.20345949 C-0.513183706,3.29291343 -0.638183587,7.0546317 1.55400432,9.3202567 L9.1008792,17.1210384 C9.34658266,17.3749447 9.67861391,17.5038505 9.9950198,17.5038505 C10.3172854,17.5038505 10.6329099,17.3768973 10.8770505,17.1229517 L18.4395508,9.31826352 C20.6434575,7.0546317 20.5106441,3.29291343 18.0575196,1.20345949 L18.057519,1.20345949 Z M17.5497071,8.44916283 L10.0145511,16.2577557 L2.45048857,8.44916283 C0.95166064,6.90619408 0.63916064,3.95697593 2.75322355,2.15580343 C4.89345825,0.324553242 7.4129895,1.65306925 8.33095825,2.60502218 L10.0008795,4.3288505 L11.6708014,2.60502218 C12.5743172,1.66752218 15.1133797,0.339397183 17.2489259,2.15580343 C19.3543956,3.95306944 19.0458021,6.90228819 17.5497077,8.44916283 L17.5497071,8.44916283 Z" id="Shape"></path>
                    </g>
                </g>
            </g>
        </g>
    </g>
</svg>