<?xml version="1.0" encoding="UTF-8"?>
<svg width="22px" height="23px" viewBox="0 0 22 23" version="1.1" xmlns="http://www.w3.org/2000/svg" xmlns:xlink="http://www.w3.org/1999/xlink">
    <title></title>
    <g id="📖-Booking-Flow" stroke="none" stroke-width="1" fill="none" fill-rule="evenodd">
        <g id="Congrats" transform="translate(-357.000000, -142.000000)" fill="#000000" fill-rule="nonzero">
            <g id="Hero-Text" transform="translate(328.000000, 142.750000)">
                <g id="" transform="translate(28.999999, 0.000000)">
                    <path d="M16.5,10.9828128 C16.5,10.7250003 16.3549811,10.4835161 16.118653,10.3649219 L11.2846686,7.94535172 L8.86445391,3.10191417 C8.63349688,2.63441396 7.87101662,2.63441396 7.63984454,3.10191417 L5.21640664,7.94492161 L0.381347656,10.3640624 C0.145019531,10.4457034 0,10.7250003 0,10.9828128 C0,11.2459964 0.145019531,11.4825395 0.381347656,11.6007036 L5.21533203,14.0228518 L7.63791037,18.8654292 C7.75156224,19.1039065 7.95351589,19.2457029 8.25,19.2457029 C8.46914089,19.2457029 8.74929667,19.100168 8.86230469,18.8638399 L11.284883,14.0212612 L16.1188674,11.599113 C16.3539065,11.4855464 16.5,11.2492182 16.5,10.9828128 L16.5,10.9828128 Z M10.4628906,12.8949221 C10.3286133,12.9593753 10.2211914,13.0667971 10.1567383,13.2010745 L8.25,17.015625 L6.34218776,13.2042964 C6.27773464,13.070019 6.17031276,12.9625971 6.03603542,12.898144 L2.22255886,10.9860346 L6.03710938,9.07929701 C6.17031276,9.00625026 6.27773464,8.89882839 6.34218776,8.765625 L8.25,4.95429635 L10.1578122,8.765625 C10.2222654,8.89990234 10.3296872,9.00732422 10.4639646,9.07714844 L14.2774411,10.9841018 L10.4628906,12.8949221 Z M14.4375,4.8125 L17.1875,4.8125 L17.1875,7.5625 C17.1875,7.94062448 17.4968755,8.25 17.875,8.25 C18.2531245,8.25 18.5625,7.94251537 18.5625,7.5625 L18.5625,4.8125 L21.3125,4.8125 C21.6906245,4.8125 22,4.50312448 22,4.125 C22,3.74687552 21.6925154,3.4375 21.3125,3.4375 L18.5625,3.4375 L18.5625,0.6875 C18.5625,0.307484627 18.2531245,0 17.875,0 C17.4968755,0 17.1875,0.307484627 17.1875,0.6875 L17.1875,3.4375 L14.4375,3.4375 C14.0593755,3.4375 13.75,3.74515641 13.75,4.125 C13.75,4.50484359 14.0593755,4.8125 14.4375,4.8125 Z M21.3125,17.1875 L18.5625,17.1875 L18.5625,14.4375 C18.5625,14.0574846 18.2550154,13.75 17.875,13.75 C17.4949846,13.75 17.1875,14.0574846 17.1875,14.4375 L17.1875,17.1875 L14.4375,17.1875 C14.0574846,17.1875 13.75,17.4949846 13.75,17.875 C13.75,18.2550154 14.0574846,18.5625 14.4375,18.5625 L17.1875,18.5625 L17.1875,21.3125 C17.1875,21.6925154 17.4949846,22 17.875,22 C18.2550154,22 18.5625,21.6925154 18.5625,21.3125 L18.5625,18.5625 L21.3125,18.5625 C21.6925154,18.5625 22,18.2550154 22,17.875 C22,17.4949846 21.6906245,17.1875 21.3125,17.1875 Z" id="Shape"></path>
                </g>
            </g>
        </g>
    </g>
</svg>