<?xml version="1.0" encoding="UTF-8"?>
<svg width="130px" height="73px" viewBox="0 0 130 73" version="1.1" xmlns="http://www.w3.org/2000/svg" xmlns:xlink="http://www.w3.org/1999/xlink">
    <title>Group</title>
    <g id="📖-Booking-Flow" stroke="none" stroke-width="1" fill="none" fill-rule="evenodd">
        <g id="Congrats" transform="translate(-316.000000, -801.000000)" fill="#000000" fill-rule="nonzero">
            <g id="Refer-a-Friend" transform="translate(60.000000, 773.000000)">
                <g id="Group" transform="translate(256.000000, 28.081633)">
                    <g id="Sparkles-Bottom" transform="translate(0.000000, 46.134111)">
                        <path d="M4.97774952,13.0379009 L3.87349015,13.0379009 L3.84488239,12.4500785 C3.75905912,9.81663411 2.51748252,6.98333013 0,6.98333013 L0,5.80768533 C2.71201526,5.80768533 3.76478067,2.99789425 3.84488239,0.587822402 L3.84488239,0 L4.95486332,0 L4.95486332,0.587822402 C5.03496503,2.99201603 5.99618563,5.62546039 8.46789574,5.79592888 L9,5.83119823 L9,6.93042612 L8.46789574,6.99508658 C5.99618563,7.1714333 5.03496503,10.0458848 4.94914177,12.4500785 L4.97774952,13.0379009 Z M2.1913541,6.4366553 C3.22916031,7.13516088 4.01040973,8.16949376 4.41131596,9.37576731 C4.79481605,8.16057818 5.56711769,7.11438494 6.60267006,6.40726418 C5.57589605,5.7681279 4.79875478,4.78049692 4.40559441,3.61510777 C4.00663205,4.79000493 3.22430272,5.78690639 2.1913541,6.4366553 L2.1913541,6.4366553 Z" id="Shape"></path>
                        <path d="M21.1756098,14.0408163 L21.1756098,14.0408163 C21.0808362,17.0387897 19.7372822,19.919799 17,19.919799 L17,19.919799 C19.7372822,19.919799 21.0864111,23.0532044 21.1756098,26.0758017 L21.1756098,26.0758017 C21.2592334,23.2071045 22.4243902,20.1537271 25,19.962891 L25,19.932111 C22.4243902,19.6920269 21.2592334,16.9095136 21.1756098,14.0408163 Z" id="Path-Copy"></path>
                    </g>
                    <g id="Sparkles-Top" transform="translate(98.000000, 0.000000)">
                        <path d="M10.1697428,27.0787172 L9.05446293,27.0787172 L9.01996974,26.4834497 C8.81875946,20.4176742 5.91558245,13.869732 0,13.869732 L0,12.6791971 C5.95582451,12.6791971 8.81875946,6.60151624 9.01996974,0.59526747 L9.01996974,0 L10.1295008,0 L10.1697428,0.59526747 C10.4686838,9.06592357 14.6366112,12.3815634 18.4596067,12.6494337 L19,12.6851498 L19,13.8756847 L18.4596067,13.9173534 C14.8320726,14.1673658 10.4916793,17.6258698 10.204236,26.5191658 L10.1697428,27.0787172 Z M3.202118,13.2923226 C6.50771558,14.6614378 8.60605144,18.1318471 9.56611195,22.0368017 C10.6526475,17.1198924 13.2166415,14.4114254 15.8898638,13.304228 C12.4405446,11.9946395 10.4801815,8.54208819 9.56611195,4.8454772 C8.68653555,8.68495238 6.55945537,12.0065449 3.202118,13.2923226 Z" id="Shape"></path>
                        <path d="M27.9777495,37.1078717 L26.8734901,37.1078717 L26.8448824,36.5200493 C26.7590591,33.886605 25.5174825,31.053301 23,31.053301 L23,29.8776562 C25.7120153,29.8776562 26.7647807,27.0678651 26.8448824,24.6577932 L26.8448824,24.0699708 L27.9548633,24.0699708 L27.9548633,24.6577932 C28.034965,27.0619869 28.9961856,29.6954312 31.4678957,29.8658997 L32,29.9011691 L32,31.000397 L31.4678957,31.0650574 C28.9961856,31.2414041 28.034965,34.1158557 27.9491418,36.5200493 L27.9777495,37.1078717 Z M25.1913541,30.5066261 C26.2291603,31.2051317 27.0104097,32.2394646 27.411316,33.4457382 C27.7948161,32.230549 28.5671177,31.1843558 29.6026701,30.477235 C28.5758961,29.8380987 27.7987548,28.8504678 27.4055944,27.6850786 C27.006632,28.8599758 26.2243027,29.8568772 25.1913541,30.5066261 L25.1913541,30.5066261 Z" id="Shape"></path>
                        <path d="M28.1756098,1.00291545 L28.1756098,1.00291545 C28.0808362,4.0008888 26.7372822,6.8818981 24,6.8818981 L24,6.8818981 C26.7372822,6.8818981 28.0864111,10.0153035 28.1756098,13.0379009 L28.1756098,13.0379009 C28.2592334,10.1692036 29.4243902,7.11582621 32,6.92499012 L32,6.89421011 C29.4243902,6.654126 28.2592334,3.87161274 28.1756098,1.00291545 Z" id="Path"></path>
                        <path d="M28.3068641,13.0379009 L27.7685061,13.0379009 L27.7685061,12.7562435 C27.6877524,10.0804983 26.4764468,7.1935101 24,7.1935101 L24,6.60672388 C26.4818304,6.60672388 27.6769852,3.93684656 27.7685061,1.28457284 L27.7685061,1.00291545 L28.3068641,1.00291545 L28.3068641,1.28457284 C28.3822342,3.73733925 29.3243607,6.41895229 31.7469717,6.56564884 L32,6.56564884 L32,7.11722789 L31.7469717,7.16417079 C29.3243607,7.34020665 28.3768506,10.262402 28.3068641,12.7093006 L28.3068641,13.0379009 Z M25.410498,6.91185271 C26.7510094,7.53384611 27.6123822,9.01254739 28.0161507,10.690756 C28.3930013,9.0418867 29.1897712,7.52797825 30.5679677,6.90598485 C29.2005384,6.31919863 28.4145357,4.8639688 28.0215343,3.29724958 C27.6177658,4.92264742 26.7617766,6.33680221 25.410498,6.91185271 Z" id="Shape"></path>
                    </g>
                </g>
            </g>
        </g>
    </g>
</svg>