<?xml version="1.0" encoding="UTF-8"?>
<svg width="14px" height="15px" viewBox="0 0 14 15" version="1.1" xmlns="http://www.w3.org/2000/svg" xmlns:xlink="http://www.w3.org/1999/xlink">
    <title></title>
    <g id="📖-Booking-Flow" stroke="none" stroke-width="1" fill="none" fill-rule="evenodd">
        <g id="Select-Location" transform="translate(-431.000000, -236.000000)" fill="#000000" fill-rule="nonzero">
            <g id="Quick-Rebook" transform="translate(122.000000, 209.000000)">
                <g id="Details" transform="translate(309.000000, 25.000000)">
                    <g id="" transform="translate(0.000000, 2.750000)">
                        <path d="M5.53710938,6.13867188 L5.80234367,6.37109375 C6.03080058,6.57617188 6.38667947,6.37707394 6.34046888,6.07632816 C6.23164046,5.36210954 5.40859383,4.92460954 4.67851579,4.92460954 C3.97660178,4.92460954 3.15136719,5.38617218 3.04199219,6.07660186 C3.01601529,6.37929696 3.37968725,6.57070321 3.60664046,6.34648454 L3.86821061,6.11406267 C4.27109367,5.77499992 5.12968767,5.77499992 5.53710938,6.13867188 Z M9.1875,4.92460954 C8.48558557,4.92460954 7.6603514,5.38617218 7.5509764,6.07660186 C7.50131989,6.38066423 7.86542952,6.57207048 8.09074175,6.37054718 L8.35231233,6.1381253 C8.75617921,5.77582061 9.61395335,5.77582061 10.0211014,6.1381253 L10.2867191,6.37109375 C10.5151764,6.57617188 10.8710549,6.37707394 10.8248439,6.07632816 C10.7160155,5.36210954 9.89296842,4.92460954 9.1875,4.92460954 Z M8.74726546,9.13828158 C7.72187483,10.0611331 6.2759372,10.0611331 5.25,9.13828158 C4.97998047,8.89388347 4.56476569,8.91611362 4.32359362,9.18613315 C4.08091784,9.45530486 4.10227346,9.8697269 4.37144518,10.1125395 C5.12968767,10.7953122 6.03750008,11.15625 7,11.15625 C7.96250033,11.15625 8.86976576,10.7955859 9.62664056,10.1119921 C9.89581227,9.86931634 9.91703105,9.45492184 9.67449212,9.18558574 C9.43195319,8.91624963 9.01796842,8.89492154 8.74726546,9.13828158 Z M7,0 C3.13359392,0 0,3.13359392 0,7 C0,10.8664061 3.13359392,14 7,14 C10.8664061,14 14,10.8664061 14,7 C14,3.13359392 10.8664061,0 7,0 Z M7,12.6875 C3.86367196,12.6875 1.3125,10.1360548 1.3125,7 C1.3125,3.86394525 3.86367196,1.3125 7,1.3125 C10.1363285,1.3125 12.6875,3.86394525 12.6875,7 C12.6875,10.1360548 10.1363285,12.6875 7,12.6875 Z" id="Shape"></path>
                    </g>
                </g>
            </g>
        </g>
    </g>
</svg>