<svg class="icon-accordion-open" width="16px" height="16px" viewBox="0 0 16 16" version="1.1" xmlns="http://www.w3.org/2000/svg" xmlns:xlink="http://www.w3.org/1999/xlink">
    <g stroke="none" stroke-width="1" fill="none" fill-rule="evenodd">
        <g transform="translate(-14.000000, -14.000000)" fill="#000000" fill-rule="nonzero">
            <g transform="translate(14.221935, 14.220650)">
                <path d="M13.1171807,13.1177869 C12.9022342,13.3327334 12.5544622,13.3327334 12.3392743,13.1177869 L7.77874366,8.55622501 L3.21718126,13.1177869 C3.00223418,13.3327334 2.65446215,13.3327334 2.43927484,13.1177869 C2.22432776,12.9028403 2.22432776,12.5550683 2.43927484,12.3398805 L7.00186845,7.77934981 L2.43996249,3.21778689 C2.22501541,3.00284033 2.22501541,2.6550683 2.43996249,2.43988152 C2.65490957,2.22493391 3.0026816,2.22493391 3.21786891,2.43988152 L7.77874366,7.0024746 L12.3403066,2.44091272 C12.5552531,2.22596512 12.9030252,2.22596512 13.118213,2.44091272 C13.3331595,2.65585928 13.3331595,3.00363131 13.118213,3.21881809 L8.55561887,7.77934981 L13.1171807,12.3409127 C13.3337439,12.5540371 13.3337439,12.9046625 13.1171807,13.1177869 Z" transform="translate(7.778834, 7.778834) rotate(45.000000) translate(-7.778834, -7.778834) "></path>
            </g>
        </g>
    </g>
</svg>