<?xml version="1.0" encoding="UTF-8"?>
<svg width="8px" height="8px" viewBox="0 0 8 8" version="1.1" xmlns="http://www.w3.org/2000/svg" xmlns:xlink="http://www.w3.org/1999/xlink">
    <title></title>
    <g id="📖-Booking-Flow" stroke="none" stroke-width="1" fill="none" fill-rule="evenodd">
        <g id="Schedule---Single" transform="translate(-1273.000000, -376.000000)" fill="#404040" fill-rule="nonzero">
            <g id="Cart" transform="translate(1009.000000, 293.000000)">
                <g id="Guest-01" transform="translate(30.000000, 74.000000)">
                    <g id="Icon/UI/Location-Copy" transform="translate(227.000000, 2.000000)">
                        <g id="" transform="translate(7.500000, 7.000000)">
                            <path d="M6.75000024,1.25 L5.46281266,1.25 L4.93156266,0.36328125 C4.78281283,0.13792181 4.55312514,0 4.29062533,0 L2.70937514,0 C2.44687533,0 2.20312524,0.13792181 2.06875014,0.36328125 L1.53718758,1.25 L0.25,1.25 C0.111328125,1.25 0,1.36140633 0,1.5 L0,1.75 C0,1.8890624 0.111328125,2 0.25,2 L0.5,2 L0.5,7 C0.5,7.55234385 0.947656393,8 1.5,8 L5.5,8 C6.05234408,8 6.5,7.55234385 6.5,7 L6.5,2 L6.75000024,2 C6.88906264,2 7,1.8890624 7,1.75 L7,1.5 C7,1.36140633 6.88906264,1.25 6.75000024,1.25 Z M2.68593764,0.795000076 C2.70156264,0.767656326 2.73281264,0.75 2.76562524,0.75 L4.23437524,0.75 C4.26757836,0.75 4.29882836,0.767578125 4.31445336,0.794921875 L4.58750033,1.25 L2.41250014,1.25 L2.68593764,0.795000076 Z M5.50000024,7.25 L1.50000024,7.25 C1.36192203,7.25 1.25,7.13807821 1.25,7 L1.25,2 L5.75,2 L5.75,7 C5.75,7.13749981 5.63749981,7.25 5.5,7.25 L5.50000024,7.25 Z M3.5,6.5 C3.63818741,6.5 3.75,6.38818741 3.75,6.25 L3.75,3 C3.75,2.86181259 3.63818741,2.75 3.5,2.75 C3.36181259,2.75 3.25,2.86250019 3.25,3 L3.25,6.25 C3.25,6.38749981 3.36249995,6.5 3.5,6.5 Z M2.25,6.5 C2.38750005,6.5 2.5,6.38749981 2.5,6.25 L2.5,3 C2.5,2.86181259 2.38818741,2.75 2.25,2.75 C2.11181259,2.75 2,2.86250019 2,3 L2,6.25 C2,6.38749981 2.11249995,6.5 2.25,6.5 Z M4.75,6.5 C4.88818741,6.5 5,6.38818741 5,6.25 L5,3 C5,2.86181259 4.88818741,2.75 4.75,2.75 C4.61181259,2.75 4.5,2.86250019 4.5,3 L4.5,6.25 C4.5,6.38749981 4.61250019,6.5 4.75,6.5 Z" id="Shape"></path>
                        </g>
                    </g>
                </g>
            </g>
        </g>
    </g>
</svg>