<?xml version="1.0" encoding="UTF-8"?>
<svg width="10px" height="10px" viewBox="0 0 10 10" version="1.1" xmlns="http://www.w3.org/2000/svg" xmlns:xlink="http://www.w3.org/1999/xlink">
    <title>Close</title>
    <g id="ðŸ“–-Booking-Flow" stroke="none" stroke-width="1" fill="none" fill-rule="evenodd">
        <g id="Schedule---Location-Filter" transform="translate(-468.000000, -308.000000)" fill="#000000" fill-rule="nonzero">
            <g id="Locations-Dropdown" transform="translate(122.000000, 278.278184)">
                <g id="ï€" transform="translate(346.000000, 29.721199)">
                    <path d="M9.85374232,9.8537422 C9.65833635,10.0491482 9.34217995,10.0491482 9.14655464,9.8537422 L5.00061754,5.70686764 L0.853742507,9.8537422 C0.658336064,10.0491482 0.342179667,10.0491482 0.146554832,9.8537422 C-0.0488516108,9.65833623 -0.0488516108,9.34217983 0.146554832,9.14655452 L4.29436733,5.00061742 L0.147179966,0.853741911 C-0.0482264772,0.658335945 -0.0482264772,0.342179548 0.147179966,0.14655519 C0.342586409,-0.04885173 0.658742806,-0.04885173 0.854367641,0.14655519 L5.00061754,4.29436721 L9.14749306,0.147492652 C9.34289902,-0.0479142681 9.65905542,-0.0479142681 9.85468073,0.147492652 C10.0500867,0.342898618 10.0500867,0.659055015 9.85468073,0.854679373 L5.70686776,5.00061742 L9.85374232,9.14749294 C10.0506179,9.34124237 10.0506179,9.65999276 9.85374232,9.8537422 Z" id="Path"></path>
                </g>
            </g>
        </g>
    </g>
</svg>