<?xml version="1.0" encoding="UTF-8"?>
<svg width="8px" height="8px" viewBox="0 0 8 8" version="1.1" xmlns="http://www.w3.org/2000/svg" xmlns:xlink="http://www.w3.org/1999/xlink">
    <title>Path</title>
    <g id="📖-Booking-Flow" stroke="none" stroke-width="1" fill="none" fill-rule="evenodd">
        <g id="Schedule---Single" transform="translate(-1094.000000, -497.000000)" fill="#FFFFFF" fill-rule="nonzero">
            <g id="Cart" transform="translate(1009.000000, 293.000000)">
                <g id="Add-Button" transform="translate(78.000000, 197.000000)">
                    <path d="M15,10.9998075 C15,11.2555765 14.7942305,11.461346 14.5384615,11.461346 L11.4615385,11.461346 L11.4615385,14.538269 C11.4615385,14.7930767 11.2548077,15 11,15 C10.7451923,15 10.5384615,14.794038 10.5384615,14.538269 L10.5384615,11.461346 L7.46153846,11.461346 C7.20673077,11.461346 7,11.2548077 7,11 C7,10.7459614 7.20673077,10.538269 7.46153846,10.538269 L10.5384615,10.538269 L10.5384615,7.46134597 C10.5384615,7.20653827 10.7451923,7 11,7 C11.2548077,7 11.4615385,7.20653827 11.4615385,7.46134597 L11.4615385,10.538269 L14.5384615,10.538269 C14.7942305,10.538269 15,10.7459614 15,10.9998075 Z" id="Path"></path>
                </g>
            </g>
        </g>
    </g>
</svg>