<?xml version="1.0" encoding="UTF-8"?>
<svg width="20px" height="20px" viewBox="0 0 20 20" version="1.1" xmlns="http://www.w3.org/2000/svg" xmlns:xlink="http://www.w3.org/1999/xlink">
    <title>Icon/Illustration/Placeholder Copy 2</title>
    <g id="📒-Client-Portal" stroke="none" stroke-width="1" fill="none" fill-rule="evenodd">
        <g id="Appointments" transform="translate(-1126.000000, -581.000000)" fill="#404040">
            <g id="Card-Row-02" transform="translate(391.000000, 551.000000)">
                <g id="Icon/Illustration/Placeholder-Copy-2" transform="translate(735.000000, 30.000000)">
                    <rect id="Rectangle" opacity="0.15" x="0" y="0" width="20" height="20" rx="10"></rect>
                    <g id="" transform="translate(6.062500, 5.906250)" fill-rule="nonzero">
                        <path d="M8.15625,0.5625 L8.15625,3.09375 C8.15625,3.40470707 7.90470707,3.65625 7.59375,3.65625 L5.0625,3.65625 C4.75154293,3.65625 4.5,3.40470707 4.5,3.09375 C4.5,2.78279293 4.75154293,2.53125 5.0625,2.53125 L6.1767776,2.53125 C5.64996117,1.83339822 4.81886744,1.41011721 3.93380874,1.41011721 C2.38535151,1.41011721 1.125,2.67011708 1.125,4.21875 C1.125,5.76738292 2.38517582,7.02773416 3.93398443,7.02773416 C4.54710925,7.02773416 5.12982452,6.83384746 5.61937487,6.46628881 C5.86933583,6.28119117 6.22089833,6.33005834 6.40705061,6.57834935 C6.59320289,6.82725567 6.54328108,7.17987281 6.29499006,7.36602509 C5.60891587,7.88071257 4.79452157,8.15457952 3.93600574,8.15457952 C1.76660156,8.15449208 0,6.38789052 0,4.21875 C0,2.04960948 1.76660156,0.28300792 3.93574208,0.28300792 C5.15126932,0.28300792 6.29121083,0.85376966 7.03125,1.79683596 L7.03125,0.5625 C7.03125,0.251542926 7.28279293,0 7.59375,0 C7.90470707,0 8.15625,0.251542926 8.15625,0.5625 Z" id="Path"></path>
                    </g>
                </g>
            </g>
        </g>
    </g>
</svg>