<?xml version="1.0" encoding="UTF-8"?>
<svg width="17px" height="14px" viewBox="0 0 17 14" version="1.1" xmlns="http://www.w3.org/2000/svg" xmlns:xlink="http://www.w3.org/1999/xlink">
    <title>Group 3</title>
    <defs>
        <polygon id="path-1" points="2.22044605e-16 0 16.1998617 0 16.1998617 13.4997 2.22044605e-16 13.4997"></polygon>
    </defs>
    <g id="📖-Booking-Flow" stroke="none" stroke-width="1" fill="none" fill-rule="evenodd">
        <g id="Select-Location" transform="translate(-431.000000, -261.000000)">
            <g id="Quick-Rebook" transform="translate(122.000000, 209.000000)">
                <g id="Details" transform="translate(309.000000, 25.000000)">
                    <g id="Group-3" transform="translate(0.000000, 27.000000)">
                        <mask id="mask-2" fill="white">
                            <use xlink:href="#path-1"></use>
                        </mask>
                        <g id="Clip-2"></g>
                        <path d="M12.5998617,7.6247 C12.5998617,7.4027 12.3978617,7.1747 12.1498617,7.1747 C11.9028617,7.1747 11.6998617,7.4027 11.6998617,7.6247 L11.6998617,8.9747 L10.3498617,8.9747 C10.1028617,8.9747 9.89986171,9.2027 9.89986171,9.4247 C9.89986171,9.6977 10.1028617,9.8747 10.3498617,9.8747 L11.6998617,9.8747 L11.6998617,11.2247 C11.6998617,11.4977 11.9028617,11.6747 12.1498617,11.6747 C12.3978617,11.6747 12.5998617,11.4977 12.5998617,11.2247 L12.5998617,9.8747 L13.9498617,9.8747 C14.1978617,9.8747 14.3998617,9.6977 14.3998617,9.4247 C14.3998617,9.2027 14.1978617,8.9747 13.9498617,8.9747 L12.5998617,8.9747 L12.5998617,7.6247 Z M8.09986171,9.4497 C8.09986171,7.2137 9.91386171,5.3747 12.1498617,5.3747 C14.3858617,5.3747 16.1998617,7.2137 16.1998617,9.4497 C16.1998617,11.6857 14.3858617,13.4997 12.1498617,13.4997 C9.91386171,13.4997 8.09986171,11.6857 8.09986171,9.4497 L8.09986171,9.4497 Z M8.72686171,2.1547 L7.23686171,3.8027 L5.65586171,2.1657 C4.70186171,1.1747 3.18386171,1.0977 2.28386171,1.8807 L2.27586171,1.8877 C1.10586171,2.8917 1.04686171,4.6887 2.08686171,5.7687 L2.08786171,5.7687 L7.21086171,11.0277 L7.40186171,10.8537 C7.53986171,11.3257 7.74786171,11.7677 8.01286171,12.1667 L7.85786171,12.3267 C7.49286171,12.6897 6.90486171,12.6897 6.56686171,12.3267 L1.11686171,6.7077 C-0.456138292,5.0767 -0.372138292,2.3797 1.39786171,0.8627 C2.77786171,-0.3383 4.83186171,-0.2373 6.24886171,0.8697 C6.38986171,0.9797 6.49986171,1.0987 6.65186171,1.2287 L7.21086171,1.8177 L7.74586171,1.2287 C7.87786171,1.0947 8.01586171,0.9707 8.16186171,0.8577 C9.57386171,-0.2383 11.6018617,-0.3343 13.0278617,0.8627 C14.2338617,1.9157 14.6448617,3.5327 14.2588617,4.9697 C13.8568617,4.7557 13.4238617,4.6437 12.9708617,4.5677 C13.2018617,3.6257 12.9288617,2.5737 12.1498617,1.8887 C11.1828617,1.0857 9.69186171,1.1877 8.72686171,2.1547 L8.72686171,2.1547 Z" id="Fill-1" fill="#000000" mask="url(#mask-2)"></path>
                    </g>
                </g>
            </g>
        </g>
    </g>
</svg>