<?xml version="1.0" encoding="UTF-8"?>
<svg width="40px" height="28px" viewBox="0 0 40 28" version="1.1" xmlns="http://www.w3.org/2000/svg" xmlns:xlink="http://www.w3.org/1999/xlink">
    <title>Group</title>
    <defs>
        <polygon id="path-1" points="-2.25350123e-15 0 5.95318285 0 5.95318285 7.999976 -2.25350123e-15 7.999976"></polygon>
        <polygon id="path-3" points="0 0 7.12123819 0 7.12123819 7.74408 0 7.74408"></polygon>
    </defs>
    <g id="📖-Booking-Flow" stroke="none" stroke-width="1" fill="none" fill-rule="evenodd">
        <g id="Review---Logged-In" transform="translate(-138.000000, -346.000000)">
            <g id="Payment-Details" transform="translate(122.000000, 239.000000)">
                <g id="Card-Details" transform="translate(0.000000, 64.000000)">
                    <g id="Field---Idle" transform="translate(0.000000, 27.000000)">
                        <g id="Group" transform="translate(16.000000, 16.000000)">
                            <rect id="Rectangle" fill="#404040" x="0" y="0" width="40" height="28" rx="3"></rect>
                            <g id="External-Logo/Visa" transform="translate(7.750000, 10.000000)">
                                <polygon id="Fill-1" fill="#FFFFFF" points="10.6161989 7.88456 8.63161958 7.88456 9.87295291 0.14032 11.8573736 0.14032"></polygon>
                                <g id="Group-12">
                                    <g id="Group-4" transform="translate(11.857318, 0.000000)">
                                        <mask id="mask-2" fill="white">
                                            <use xlink:href="#path-1"></use>
                                        </mask>
                                        <g id="Clip-3"></g>
                                        <path d="M5.95318285,0.32968 C5.56173786,0.17296 4.94083333,0 4.17316667,0 C2.21332524,0 0.833237864,1.05448 0.824754045,2.562 C0.8085,3.67432 1.81284142,4.29216 2.56409547,4.66296 C3.33192071,5.042 3.59285761,5.28936 3.59285761,5.62712 C3.58508738,6.14592 2.9724288,6.38512 2.40107929,6.38512 C1.60875405,6.38512 1.18416667,6.26176 0.539,5.97312 L0.277666667,5.84944 L-2.25350123e-15,7.58784 C0.465420712,7.80176 1.323,7.99168 2.21332524,8 C4.29566667,8 5.65141262,6.96184 5.6674288,5.35528 C5.67535761,4.47368 5.145,3.79816 4.00158738,3.24616 C3.3075,2.89184 2.88235761,2.65296 2.88235761,2.2904 C2.89052427,1.9608 3.2419288,1.6232 4.02545307,1.6232 C4.67061974,1.60664 5.14468285,1.76312 5.50377832,1.91968 L5.68328641,2.00192 L5.95318285,0.32968 Z" id="Fill-2" fill="#FFFFFF" mask="url(#mask-2)"></path>
                                    </g>
                                    <g id="Group-7" transform="translate(17.377731, 0.140352)">
                                        <mask id="mask-4" fill="white">
                                            <use xlink:href="#path-3"></use>
                                        </mask>
                                        <g id="Clip-6"></g>
                                        <path d="M5.52019094,0 L3.98509547,0 C3.51174595,0 3.15209547,0.13992 2.94784951,0.64256 L0,7.74408 L2.08234142,7.74408 C2.08234142,7.74408 2.42518285,6.78832 2.49884142,6.5824 L5.04692071,6.5824 C5.1039288,6.85432 5.28375405,7.74408 5.28375405,7.74408 L7.12125405,7.74408 L5.52019094,0 Z M3.0704288,5.00072 C3.23392071,4.55584 3.86283333,2.83392 3.86283333,2.83392 C3.85458738,2.85048 4.0259288,2.3808 4.1239288,2.09256 L4.26260356,2.75984 C4.26260356,2.75984 4.6384288,4.61352 4.72001618,5.00072 L3.0704288,5.00072 Z" id="Fill-5" fill="#FFFFFF" mask="url(#mask-4)"></path>
                                    </g>
                                    <path d="M6.97400825,0.140352 L5.03042087,5.421152 L4.81808754,4.350192 C4.45875421,3.114352 3.3318335,1.771632 2.07424612,1.104032 L3.85450016,7.876352 L5.95309563,7.876352 L9.07252443,0.140352 L6.97400825,0.140352 Z" id="Fill-8" fill="#FFFFFF"></path>
                                    <path d="M3.22567476,0.140352 L0.0326666667,0.140352 L0,0.296832 C2.49075405,0.939472 4.14034142,2.488592 4.81801618,4.350512 L4.1239288,0.791312 C4.00967476,0.296752 3.65850809,0.156672 3.22567476,0.140352" id="Fill-10" fill="#FFFFFF"></path>
                                </g>
                            </g>
                        </g>
                    </g>
                </g>
            </g>
        </g>
    </g>
</svg>