<?xml version="1.0" encoding="UTF-8"?>
<svg width="11px" height="11px" viewBox="0 0 11 11" version="1.1" xmlns="http://www.w3.org/2000/svg" xmlns:xlink="http://www.w3.org/1999/xlink">
    <title></title>
    <g id="📒-Client-Portal" stroke="none" stroke-width="1" fill="none" fill-rule="evenodd">
        <g id="Purchases" transform="translate(-406.000000, -296.000000)" fill="#000000" fill-rule="nonzero">
            <g id="Filter" transform="translate(391.000000, 287.000000)">
                <g id="Stacked-Group" transform="translate(15.000000, 8.000000)">
                    <g id="" transform="translate(0.000000, 1.968750)">
                        <path d="M9.1875,0 L1.3125,0 C0.587548703,0 0,0.587548703 0,1.3125 L0,7.875 C0,8.5999513 0.587548703,9.1875 1.3125,9.1875 L9.1875,9.1875 C9.9124513,9.1875 10.5,8.5999513 10.5,7.875 L10.5,1.3125 C10.5,0.587548703 9.91142553,0 9.1875,0 Z M1.96875,2.625 C1.60473633,2.625 1.3125,2.33378881 1.3125,1.96875 C1.3125,1.60371119 1.60473633,1.3125 1.96875,1.3125 C2.33276367,1.3125 2.625,1.60473633 2.625,1.96875 C2.625,2.33276367 2.33378913,2.625 1.96875,2.625 Z M3.9375,2.625 C3.57451178,2.625 3.28125,2.33378881 3.28125,1.96875 C3.28125,1.60371119 3.57348633,1.3125 3.9375,1.3125 C4.30151367,1.3125 4.59375,1.60473633 4.59375,1.96875 C4.59375,2.33276367 4.30253913,2.625 3.9375,2.625 Z M5.90625,2.625 C5.54223633,2.625 5.25,2.33276367 5.25,1.96875 C5.25,1.60473633 5.54223633,1.3125 5.90625,1.3125 C6.27026367,1.3125 6.5625,1.60473633 6.5625,1.96875 C6.5625,2.33276367 6.27128881,2.625 5.90625,2.625 Z" id="Shape"></path>
                    </g>
                </g>
            </g>
        </g>
    </g>
</svg>