<?xml version="1.0" encoding="UTF-8"?>
<svg width="14px" height="15px" viewBox="0 0 14 15" version="1.1" xmlns="http://www.w3.org/2000/svg" xmlns:xlink="http://www.w3.org/1999/xlink">
    <title></title>
    <g id="📖-Booking-Flow" stroke="none" stroke-width="1" fill="none" fill-rule="evenodd">
        <g id="Services---Selected-+-Toast" transform="translate(-627.000000, -61.000000)" fill="#000000" fill-rule="nonzero">
            <g id="Toast-Notification" transform="translate(20.000000, 20.000000)">
                <g id="Different-Services-Copy" transform="translate(102.000000, 9.000000)">
                    <g id="" transform="translate(505.000000, 32.750000)">
                        <path d="M7,0 C3.13359392,0 0,3.13359392 0,7 C0,10.8664061 3.13359392,14 7,14 C10.8664061,14 14,10.8664061 14,7 C14,3.13359392 10.8664061,0 7,0 Z M10.1664059,5.79140633 L6.66640592,9.29140592 C6.51601571,9.44179654 6.32187492,9.515625 6.125,9.515625 C5.92812508,9.515625 5.73289073,9.4412775 5.58332038,9.2917347 L3.83332038,7.5417347 C3.53499997,7.242594 3.53499997,6.75724244 3.83332038,6.45810175 C4.13246107,6.15896106 4.61781263,6.15896106 4.91695333,6.45810175 L6.125,7.66718733 L9.08359408,4.70859408 C9.38273478,4.40945339 9.86808634,4.40945339 10.167227,4.70859408 C10.4644535,5.00664079 10.4644535,5.49335921 10.1664059,5.79140633 Z" id="Shape"></path>
                    </g>
                </g>
            </g>
        </g>
    </g>
</svg>