<svg width="166px" height="103px" viewBox="0 0 166 103" version="1.1" xmlns="http://www.w3.org/2000/svg" xmlns:xlink="http://www.w3.org/1999/xlink">
    <title>Group 2</title>
    <g id="ðŸ“–-Booking-Flow" stroke="none" stroke-width="1" fill="none" fill-rule="evenodd">
        <g id="Login" transform="translate(-625.000000, -235.000000)">
            <g id="Group-2" transform="translate(625.001074, 235.000000)">
                <g id="Icon/Illustration/Placeholder" transform="translate(59.998926, 35.000000)">
                    <rect id="Rectangle" fill="#000000" x="0" y="0" width="68" height="68" rx="34"></rect>
                    <g id="black-icon-11" transform="translate(14.097561, 15.756098)" fill="#FFFFFF" fill-rule="nonzero" stroke="#FFFFFF" stroke-width="0.5">
                        <path d="M20.6809358,9.39403261 C20.8062417,9.26044639 20.9095656,9.14416969 21.0192502,9.03426535 C23.3702757,6.67853712 25.7215782,4.32308682 28.0731578,1.96791445 C28.9472189,1.06898879 30.0623791,0.442689317 31.2840128,0.164624717 C32.7505344,-0.185564618 34.2948327,0.027332151 35.6123671,0.76133108 C37.4791818,1.77305939 38.5987862,3.36423422 38.9006347,5.45660079 C39.1693018,7.15035451 38.708809,8.87881419 37.6333593,10.21332 C37.4148354,10.4893415 37.1802079,10.7521795 36.9307049,11.000458 C34.6319659,13.3088567 32.3305703,15.6145984 30.026518,17.9176832 C29.5376686,18.4067096 29.6477047,18.3965235 29.150995,17.8996542 C26.4493756,15.1971488 23.7493369,12.49306 21.050879,9.78738794 C20.9293162,9.66557719 20.8147887,9.53671832 20.6809358,9.39403261 Z M29.5964515,17.013108 C31.9249646,14.6826524 34.2548602,12.4057554 36.518081,10.0642032 C37.7887058,8.74959527 38.2418437,7.12932794 37.9090199,5.30200868 C37.6276916,3.87150358 36.778394,2.61677251 35.5558071,1.82543096 C34.3332202,1.03408942 32.8421864,0.773998549 31.4244878,1.10477764 C30.4116327,1.34903482 29.4877367,1.87357425 28.7582418,2.61853149 C26.5886069,4.78142444 24.4236461,6.94901864 22.2633595,9.12131409 C21.9946185,9.39078021 21.9960099,9.39807817 22.2876075,9.69110876 C23.1942149,10.6021832 24.1021357,11.5119443 25.0113697,12.420392 C26.5287851,13.9403165 28.0461825,15.4602576 29.5964515,17.013108 L29.5964515,17.013108 Z" id="Shape"></path>
                        <path d="M18.294674,9.35297375 L9.36765342,18.2784553 C9.29734814,18.2132148 9.19397773,18.1233176 9.09731231,18.026712 C6.67484696,15.6057261 4.25277663,13.1843452 1.83110134,10.7625693 C0.552693414,9.53261645 -0.112553594,7.79800956 0.0156274005,6.02878839 C0.145053392,3.83380511 1.16878373,2.11600548 3.05496703,0.935742589 C4.04176753,0.307488693 5.19119154,-0.0175974019 6.36092359,0.000734711268 C8.04350822,0.0249980567 9.5374617,0.593839716 10.7465031,1.79689764 C13.1992463,4.23750929 15.6467082,6.68342737 18.0888891,9.13465188 C18.1629562,9.2087248 18.2327383,9.28708508 18.294674,9.35297375 Z M6.36289875,0.934467237 C4.62204077,1.00878739 3.17072066,1.66020583 2.09337895,3.03957891 C1.25438836,4.08171125 0.850374993,5.40755806 0.965666044,6.74038354 C1.07775884,8.14608977 1.68826987,9.31969399 2.70158311,10.3153143 C4.81577266,12.3925898 6.89910292,14.5012652 8.99514358,16.5970092 C9.06999625,16.6718555 9.15062213,16.74173 9.21910151,16.8219777 C9.3593517,16.9863398 9.48486656,16.9544681 9.61075686,16.8068363 C9.64498298,16.7667049 9.68547836,16.7319433 9.72290394,16.6945269 C12.0559472,14.361884 14.3887672,12.029015 16.7213641,9.69591982 C17.0096295,9.40741892 17.0103095,9.39869346 16.7331533,9.12134209 C14.5008947,6.88751635 12.2666132,4.65572625 10.0303088,2.42597179 C9.01769512,1.42211149 7.7486389,1.00470205 6.36289875,0.934467237 Z" id="Shape"></path>
                        <path d="M10.3405045,34.0512966 C10.3378108,33.4101973 10.4839984,32.7781342 10.7663485,32.2102618 C11.7852261,30.1172841 12.8023859,28.0233812 13.8178278,25.9285532 C13.8331789,25.8969354 13.8447084,25.8631159 13.861521,25.8324557 C13.9726833,25.6297447 14.0866463,25.4161459 14.3478662,25.4316953 C14.5799205,25.4455042 14.6755604,25.6391317 14.7708072,25.8353479 C15.4583145,27.2516299 16.1488241,28.6662938 16.8423359,30.0793395 C17.1960265,30.802863 17.5628751,31.5196262 17.9012089,32.2510328 C18.3496215,33.1971522 18.4177486,34.2936709 18.0902281,35.2933306 C17.5182411,37.0710421 15.8968975,38.2334172 14.1178262,38.1412286 C12.3387549,38.04904 10.8334405,36.7246464 10.4297037,34.8963745 C10.3828001,34.6169909 10.3530179,34.3347142 10.3405045,34.0512966 Z M14.3124584,26.9078683 C13.339981,28.9089387 12.4096747,30.8057097 11.4966087,32.7116538 C11.1941186,33.3549589 11.1315102,34.0944094 11.3211464,34.7839901 C11.5329627,35.6627626 12.0805775,36.4098956 12.8338891,36.847886 C13.5872007,37.2858763 14.4789703,37.37563 15.2973322,37.0958235 C17.0558468,36.4787406 17.963179,34.3612372 17.0908125,32.579582 C16.2310137,30.8235899 15.3845284,29.0603657 14.5309774,27.3009715 C14.4806303,27.1971972 14.4193528,27.0993061 14.3124584,26.9078683 L14.3124584,26.9078683 Z" id="Shape"></path>
                        <path d="M23.8493043,23.6382993 C23.9876219,25.3918128 22.6372993,27.341216 20.5987855,27.7511361 C18.7541591,28.1220681 16.2930576,26.8731464 15.9382606,24.1363495 C15.8421522,23.357932 15.979446,22.5675109 16.3311978,21.8741516 C17.3377724,19.8163709 18.3489494,17.7610524 19.3647287,15.7081962 C19.4244431,15.58137 19.4930356,15.4593296 19.5699462,15.3430712 C19.7954135,15.0157468 20.0744024,15.0188139 20.2981895,15.3501112 C20.3635702,15.4530668 20.4216962,15.5608629 20.4721065,15.6726449 C21.4608764,17.7148664 22.4489509,19.7574544 23.4363302,21.800409 C23.7224631,22.3926765 23.9163881,23.0084464 23.8493043,23.6382993 Z M19.9500309,16.5891303 C19.901876,16.6451233 19.8576671,16.7046938 19.8177521,16.767373 C18.920462,18.60264 18.0246687,20.4387012 17.1303721,22.2755565 C16.9109395,22.7361524 16.8052941,23.2468707 16.8230739,23.7611189 C16.8521441,24.7130381 17.2800749,25.6034283 17.9932345,26.195857 C18.7063941,26.7882856 19.6326191,27.0228059 20.5259613,26.8371437 C21.4917046,26.6545634 22.3156334,25.9998923 22.7425808,25.0758787 C23.1695282,24.1518652 23.1479623,23.0700364 22.684562,22.1654295 C22.3617056,21.5276354 22.048302,20.8845764 21.7337991,20.2421991 C21.1432447,19.0359792 20.5550383,17.8285022 19.9500309,16.5891303 Z" id="Shape"></path>
                        <path d="M29.4305625,33.9099808 C29.39347,36.0518896 27.9675693,37.7749354 26.0462899,38.1009458 C23.9920797,38.4198851 22.0490435,37.0271881 21.5800514,34.89971 C21.3782781,34.0490484 21.4729301,33.1505078 21.8468541,32.3669279 C22.4876283,31.0279502 23.132281,29.6910327 23.7808122,28.3561755 C24.1676629,27.5566744 24.5596108,26.7599015 24.9472728,25.9608294 C25.0700792,25.7076921 25.1728657,25.4135137 25.504835,25.4316971 C25.8095732,25.4483937 25.8815966,25.7417658 25.9944708,25.9755465 C26.9948508,28.0474695 27.9953268,30.1193414 28.9958989,32.1911623 C29.2512752,32.7267096 29.3992264,33.3117626 29.4305625,33.9099808 L29.4305625,33.9099808 Z M25.4933595,26.9429347 C25.4528069,26.9895159 25.4152092,27.03885 25.3808095,27.0906181 C24.4672838,28.9609485 23.542627,30.8254498 22.6492104,32.7063626 C22.3704985,33.2793874 22.2900367,33.9365495 22.4216244,34.5651437 C22.6837608,35.8686609 23.4161977,36.7296359 24.6031825,37.1051752 C25.800611,37.4840202 26.8745889,37.1501359 27.7417198,36.2027029 C28.6441514,35.1854099 28.8276128,33.6754323 28.1974091,32.4521568 C27.4323745,30.9017711 26.6767761,29.3462427 25.9164554,27.7932849 C25.78752,27.5299396 25.6553811,27.2683328 25.4933595,26.9429347 Z" id="Shape"></path>
                        <path d="M15.9075149,34.713239 C15.8782076,35.6572491 14.9017869,36.569952 13.9362146,36.5558946 C13.7281047,36.570656 13.5452181,36.4228927 13.5221503,36.2213527 C13.5215828,36.0615565 13.6549694,35.9311421 13.8894121,35.9020107 C14.6613763,35.8060918 15.1159902,35.3995948 15.2528994,34.6478693 C15.3189935,34.2849636 15.4408598,34.1548992 15.6257045,34.1747037 C15.8310193,34.1966993 15.9183747,34.3636231 15.9075149,34.713239 Z" id="Path"></path>
                        <path d="M20.2945948,25.4308943 C20.0576261,25.4319994 19.916949,25.3361661 19.8905844,25.1556496 C19.8605696,24.9501353 19.9619599,24.8292568 20.245105,24.7896393 C20.6735227,24.7296976 21.0610758,24.5868617 21.3048858,24.2260363 C21.4235098,24.0157645 21.515986,23.7923077 21.580334,23.5604508 C21.6070212,23.486554 21.5790618,23.3933905 21.6067881,23.3202141 C21.6677346,23.15936 21.77521,23.02286 21.9716922,23.0502726 C22.056775,23.0545035 22.1365135,23.0922216 22.1928368,23.154879 C22.2491601,23.2175363 22.2772991,23.2998275 22.2708767,23.383103 C22.2633286,23.6095953 22.2274698,23.834325 22.1641035,24.0522583 C21.893046,24.8475067 21.149179,25.3960543 20.2945948,25.4308943 L20.2945948,25.4308943 Z" id="Path"></path>
                        <path d="M27.8397213,34.6579558 C27.814648,35.5681855 27.0045337,36.490856 25.8604377,36.55561 C25.6690783,36.5711945 25.4961106,36.4451336 25.4584269,36.2626197 C25.4261572,36.0732486 25.5515479,35.9495906 25.8218026,35.8994238 C25.9527518,35.8799674 26.0822516,35.8522485 26.2094762,35.816444 C26.6662296,35.6849664 27.0159232,35.3272921 27.1268345,34.8781497 C27.1615187,34.7538178 27.1855069,34.6266707 27.2141284,34.5007624 C27.2650175,34.2768594 27.396538,34.1456158 27.5602012,34.1775084 C27.6442902,34.1875394 27.7204812,34.2304874 27.7710608,34.2963677 C27.8216405,34.362248 27.8422022,34.4453211 27.8279657,34.5262735 C27.8266221,34.5704604 27.830567,34.6146493 27.8397213,34.6579558 Z" id="Path"></path>
                    </g>
                </g>
                <g id="ï€„" transform="translate(-0.000000, 63.746150)" fill="#000000" fill-rule="nonzero">
                    <path d="M18.057519,1.20345949 C15.9286127,-0.612946758 12.7411125,-0.319587002 10.7684562,1.72181844 L9.99931551,2.52689718 L9.22939397,1.72181844 C7.63955093,0.0761163142 4.42470706,-0.905915508 1.94267548,1.20345949 C-0.513183706,3.29291343 -0.638183587,7.0546317 1.55400432,9.3202567 L9.1008792,17.1210384 C9.34658266,17.3749447 9.67861391,17.5038505 9.9950198,17.5038505 C10.3172854,17.5038505 10.6329099,17.3768973 10.8770505,17.1229517 L18.4395508,9.31826352 C20.6434575,7.0546317 20.5106441,3.29291343 18.0575196,1.20345949 L18.057519,1.20345949 Z M17.5497071,8.44916283 L10.0145511,16.2577557 L2.45048857,8.44916283 C0.95166064,6.90619408 0.63916064,3.95697593 2.75322355,2.15580343 C4.89345825,0.324553242 7.4129895,1.65306925 8.33095825,2.60502218 L10.0008795,4.3288505 L11.6708014,2.60502218 C12.5743172,1.66752218 15.1133797,0.339397183 17.2489259,2.15580343 C19.3543956,3.95306944 19.0458021,6.90228819 17.5497077,8.44916283 L17.5497071,8.44916283 Z" id="Shape"></path>
                </g>
                <g id="Sparkle-icon" transform="translate(133.998926, 0.000000)" fill="#000000" fill-rule="nonzero">
                    <path d="M10.1697428,27 L9.05446293,27 L9.01996974,26.406463 C8.81875946,20.3583205 5.91558245,13.8294131 0,13.8294131 L0,12.642339 C5.95582451,12.642339 8.81875946,6.58232579 9.01996974,0.593537041 L9.01996974,0 L10.1295008,0 L10.1697428,0.593537041 C10.4686838,9.03956914 14.6366112,12.3455705 18.4596067,12.6126621 L19,12.6482743 L19,13.8353484 L18.4596067,13.876896 C14.8320726,14.1261816 10.4916793,17.5746318 10.204236,26.4420752 L10.1697428,27 Z M3.202118,13.2536821 C6.50771558,14.6188173 8.60605144,18.0791383 9.56611195,21.9727413 C10.6526475,17.0701253 13.2166415,14.3695318 15.8898638,13.2655529 C12.4405446,11.9597714 10.4801815,8.51725654 9.56611195,4.83139151 C8.68653555,8.65970543 6.55945537,11.9716421 3.202118,13.2536821 Z" id="Shape"></path>
                    <path d="M27.9777495,37 L26.8734901,37 L26.8448824,36.4138864 C26.7590591,33.7880974 25.5174825,30.9630298 23,30.9630298 L23,29.7908025 C25.7120153,29.7908025 26.7647807,26.9891794 26.8448824,24.5861136 L26.8448824,24 L27.9548633,24 L27.9548633,24.5861136 C28.034965,26.9833183 28.9961856,29.6091073 31.4678957,29.7790803 L32,29.8142471 L32,30.9102795 L31.4678957,30.974752 C28.9961856,31.1505861 28.034965,34.0166817 27.9491418,36.4138864 L27.9777495,37 Z M25.1913541,30.4179441 C26.2291603,31.1144191 27.0104097,32.1457452 27.411316,33.3485122 C27.7948161,32.1368556 28.5671177,31.0937036 29.6026701,30.3886384 C28.5758961,29.7513601 27.7987548,28.7666001 27.4055944,27.6045987 C27.006632,28.7760805 26.2243027,29.770084 25.1913541,30.4179441 L25.1913541,30.4179441 Z" id="Shape"></path>
                    <path d="M28.1756098,1 L28.1756098,1 C28.0808362,3.98925831 26.7372822,6.86189258 24,6.86189258 L24,6.86189258 C26.7372822,6.86189258 28.0864111,9.98618926 28.1756098,13 L28.1756098,13 C28.2592334,10.1396419 29.4243902,7.09514066 32,6.90485934 L32,6.8741688 C29.4243902,6.63478261 28.2592334,3.86035806 28.1756098,1 Z" id="Path"></path>
                    <path d="M28.3068641,13 L27.7685061,13 L27.7685061,12.7191614 C27.6877524,10.0511945 26.4764468,7.17259873 24,7.17259873 L24,6.58751828 C26.4818304,6.58751828 27.6769852,3.92540224 27.7685061,1.28083862 L27.7685061,1 L28.3068641,1 L28.3068641,1.28083862 C28.3822342,3.72647489 29.3243607,6.40029254 31.7469717,6.54656265 L32,6.54656265 L32,7.09653827 L31.7469717,7.14334471 C29.3243607,7.31886884 28.3768506,10.2325695 28.3068641,12.6723549 L28.3068641,13 Z M25.410498,6.89176012 C26.7510094,7.51194539 27.6123822,8.98634812 28.0161507,10.6596782 C28.3930013,9.01560215 29.1897712,7.50609459 30.5679677,6.88590931 C29.2005384,6.30082886 28.4145357,4.84982935 28.0215343,3.28766455 C27.6177658,4.9083374 26.7617766,6.31838128 25.410498,6.89176012 Z" id="Shape"></path>
                </g>
                <g id="ï¢-copy-3" transform="translate(50.998926, 12.000000)" fill="#000000" fill-rule="nonzero">
                    <g id="Group">
                        <path d="M4.97774952,13 L3.87349015,13 L3.84488239,12.4138864 C3.75905912,9.78809739 2.51748252,6.96302976 0,6.96302976 L0,5.79080252 C2.71201526,5.79080252 3.76478067,2.98917944 3.84488239,0.586113616 L3.84488239,0 L4.95486332,0 L4.95486332,0.586113616 C5.03496503,2.9833183 5.99618563,5.6091073 8.46789574,5.77908025 L9,5.81424707 L9,6.91027953 L8.46789574,6.97475203 C5.99618563,7.15058611 5.03496503,10.0166817 4.94914177,12.4138864 L4.97774952,13 Z M2.1913541,6.41794409 C3.22916031,7.11441913 4.01040973,8.14574523 4.41131596,9.34851217 C4.79481605,8.13685557 5.56711769,7.09370359 6.60267006,6.38863841 C5.57589605,5.75136009 4.79875478,4.76660012 4.40559441,3.60459874 C4.00663205,4.7760805 3.22430272,5.77008398 2.1913541,6.41794409 L2.1913541,6.41794409 Z" id="Shape"></path>
                    </g>
                </g>
            </g>
        </g>
    </g>
</svg>