<?xml version="1.0" encoding="UTF-8"?>
<svg width="12px" height="11px" viewBox="0 0 12 11" version="1.1" xmlns="http://www.w3.org/2000/svg" xmlns:xlink="http://www.w3.org/1999/xlink">
    <title></title>
    <g id="📒-Client-Portal" stroke="none" stroke-width="1" fill="none" fill-rule="evenodd">
        <g id="Purchases" transform="translate(-595.000000, -296.000000)" fill="#000000" fill-rule="nonzero">
            <g id="Filter" transform="translate(391.000000, 287.000000)">
                <g id="Pill/-Icon+Text-Copy" transform="translate(189.000000, 0.000000)">
                    <g id="Stacked-Group" transform="translate(15.328198, 8.000000)">
                        <g id="" transform="translate(0.000000, 1.312295)">
                            <path d="M9.58732885,5.25020528 C9.33713329,5.25020528 9.09309044,5.20918965 8.85930151,5.13741231 L8.85930151,7.87520528 L2.2947506,7.87520528 L2.2947506,5.13741231 C2.06096135,5.20918965 1.8148676,5.25020528 1.56569749,5.25020528 C1.45392997,5.25020528 1.34216215,5.24200228 1.21193741,5.22764656 C1.14467181,5.21739265 1.06674206,5.18458034 0.984300568,5.16202162 L0.984505846,9.51583028 C0.984505846,10.0594926 1.42521885,10.5002053 1.95042394,10.5002053 L9.17122547,10.5002053 C9.71488778,10.5002053 10.1371436,10.0594926 10.1371436,9.51583028 L10.1378714,5.16202162 C10.0528461,5.18421109 9.97200398,5.21757728 9.88357468,5.22930788 C9.81086357,5.24200228 9.70012151,5.25020528 9.58732854,5.25020528 L9.58732885,5.25020528 Z M10.9018788,2.12891597 L9.72637086,0.269267678 C9.62167825,0.102129132 9.43495502,0 9.23561905,0 L1.91945757,0 C1.72018294,0 1.53350039,0.102108479 1.42870545,0.269267678 L0.252787559,2.12891597 C-0.354038537,3.08929718 0.182856157,4.42374068 1.31714353,4.57754928 C1.39876454,4.58780287 1.48264173,4.59395528 1.56590339,4.59395528 C2.1019776,4.59395528 2.57673334,4.36057627 2.90280774,3.99984393 C3.22785638,4.36016634 3.70568848,4.59395528 4.2388916,4.59395528 C4.77496581,4.59395528 5.24972154,4.36057627 5.57579626,3.99984393 C5.90207501,4.36016634 6.37785651,4.59395528 6.91311054,4.59395528 C7.44980027,4.59395528 7.92394079,4.36057627 8.25001489,3.99984393 C8.57629426,4.36016634 9.05207513,4.59395528 9.58527826,4.59395528 C9.67020093,4.59395528 9.75165827,4.5883483 9.83321764,4.5776926 C10.9716065,4.42579128 11.5109617,3.09073287 10.9018794,2.12891597 L10.9018788,2.12891597 Z" id="Shape"></path>
                        </g>
                    </g>
                </g>
            </g>
        </g>
    </g>
</svg>