<?xml version="1.0" encoding="UTF-8"?>
<svg width="6px" height="14px" viewBox="0 0 6 14" version="1.1" xmlns="http://www.w3.org/2000/svg" xmlns:xlink="http://www.w3.org/1999/xlink">
    <title>Shape</title>
    <g id="â­-Symbols" stroke="none" stroke-width="1" fill="none" fill-rule="evenodd">
        <g id="Button/UI/Info" transform="translate(-9.000000, -5.000000)" fill="#000000" fill-rule="nonzero">
            <g id="Group">
                <path d="M12.2895105,8.5 C13.2755245,8.5 13.8,7.71830986 13.8,7 C13.8,6.26056338 13.2755245,5.5 12.2895105,5.5 C11.3454545,5.5 10.8,6.26056338 10.8,7 C10.8,7.71830986 11.3454545,8.5 12.2895105,8.5 Z M9.8,18.5 L14.8,18.5 L14.6009257,17.7553319 L14.3231855,17.7362224 C13.5098035,17.6597841 13.390772,17.6024554 13.390772,17.4304693 L13.390772,9.5 L9.87934239,10.4363687 L9.85950381,10.6656834 L10.2761141,10.7612313 C10.9704646,10.9332173 11.1093347,11.1052034 11.1093347,12.2708869 L11.1093347,17.4113598 C11.1093347,17.6406745 10.8911103,17.6980032 10.3157913,17.7362224 L9.97853532,17.7553319 L9.8,18.5 Z" id="Shape"></path>
            </g>
        </g>
    </g>
</svg>