<?xml version="1.0" encoding="UTF-8"?>
<svg width="12px" height="11px" viewBox="0 0 12 11" version="1.1" xmlns="http://www.w3.org/2000/svg" xmlns:xlink="http://www.w3.org/1999/xlink">
    <title>Path</title>
    <g id="⭐-Symbols" stroke="none" stroke-width="1" fill="none" fill-rule="evenodd">
        <g id="Button/UI/Arrow/Small" transform="translate(-7.000000, -7.000000)" fill="#000000" fill-rule="nonzero">
            <g id="" transform="translate(7.000000, 7.630000)">
                <path d="M11.265821,5.15014501 L7.05351648,9.61889501 C6.96972695,9.70776219 6.83261773,9.75092657 6.74121132,9.75092657 C6.64000449,9.75092657 6.53839085,9.71601446 6.45785186,9.64540298 C6.28588128,9.49463375 6.27313522,9.2376296 6.42946523,9.07182885 L10.0013674,5.28217657 L0.421230763,5.28217657 C0.188373208,5.28217657 0,5.10050667 0,4.89877797 C0,4.69704927 0.188423961,4.46967657 0.421230763,4.46967657 L10.0011133,4.46967657 L6.42865241,0.678856563 C6.27232239,0.513030242 6.28506845,0.255847882 6.45703903,0.105281662 C6.62941602,-0.0446747433 6.89553484,-0.0335795174 7.05244949,0.133059632 L11.264754,4.60180963 C11.4105471,4.75659071 11.4105471,4.99526281 11.265821,5.15014501 Z" id="Path"/>
            </g>
        </g>
    </g>
</svg>