<?xml version="1.0" encoding="UTF-8"?>
<svg width="19px" height="19px" viewBox="0 0 19 19" version="1.1" xmlns="http://www.w3.org/2000/svg" xmlns:xlink="http://www.w3.org/1999/xlink">
    <title>Active Icon</title>
    <g id="📖-Booking-Flow" stroke="none" stroke-width="1" fill="none" fill-rule="evenodd">
        <g id="Services---Single---Filter---30-Min" transform="translate(-46.000000, -291.000000)" fill="#50AAF2" fill-rule="nonzero">
            <g id="Subnav" transform="translate(46.418181, 287.000000)">
                <g id="Active-Icon" transform="translate(0.000000, 4.250000)">
                    <path d="M13.5,8.98593771 C13.5,8.77500021 13.3813482,8.57742226 13.1879888,8.48039067 L9.23291069,6.50074232 L7.25273502,2.53792977 C7.06377017,2.1554296 6.43992269,2.1554296 6.25078189,2.53792977 L4.26796907,6.50039041 L0.312011719,8.47968739 C0.118652344,8.54648459 0,8.77500021 0,8.98593771 C0,9.20126975 0.118652344,9.39480507 0.312011719,9.49148476 L4.26708984,11.4732424 L6.24919939,15.4353511 C6.34218729,15.630469 6.50742209,15.7464842 6.75,15.7464842 C6.92929709,15.7464842 7.15851545,15.6274102 7.25097656,15.4340508 L9.23308611,11.471941 L13.1881642,9.49018335 C13.380469,9.3972652 13.5,9.20390582 13.5,8.98593771 L13.5,8.98593771 Z M8.56054688,10.5503908 C8.45068359,10.6031252 8.36279297,10.6910158 8.31005859,10.8008791 L6.75,13.921875 L5.18906271,10.8035152 C5.13632834,10.6936519 5.04843771,10.6057613 4.93857443,10.5530269 L1.81845725,8.98857379 L4.93945312,7.42851573 C5.04843771,7.36875021 5.13632834,7.28085959 5.18906271,7.171875 L6.75,4.0535152 L8.31093729,7.171875 C8.36367166,7.28173828 8.45156229,7.36962891 8.56142557,7.42675781 L11.6815428,8.98699236 L8.56054688,10.5503908 Z M11.8125,3.9375 L14.0625,3.9375 L14.0625,6.1875 C14.0625,6.49687457 14.3156254,6.75 14.625,6.75 C14.9343746,6.75 15.1875,6.49842167 15.1875,6.1875 L15.1875,3.9375 L17.4375,3.9375 C17.7468746,3.9375 18,3.68437457 18,3.375 C18,3.06562543 17.7484217,2.8125 17.4375,2.8125 L15.1875,2.8125 L15.1875,0.5625 C15.1875,0.251578331 14.9343746,0 14.625,0 C14.3156254,0 14.0625,0.251578331 14.0625,0.5625 L14.0625,2.8125 L11.8125,2.8125 C11.5031254,2.8125 11.25,3.06421888 11.25,3.375 C11.25,3.68578112 11.5031254,3.9375 11.8125,3.9375 Z M17.4375,14.0625 L15.1875,14.0625 L15.1875,11.8125 C15.1875,11.5015783 14.9359217,11.25 14.625,11.25 C14.3140783,11.25 14.0625,11.5015783 14.0625,11.8125 L14.0625,14.0625 L11.8125,14.0625 C11.5015783,14.0625 11.25,14.3140783 11.25,14.625 C11.25,14.9359217 11.5015783,15.1875 11.8125,15.1875 L14.0625,15.1875 L14.0625,17.4375 C14.0625,17.7484217 14.3140783,18 14.625,18 C14.9359217,18 15.1875,17.7484217 15.1875,17.4375 L15.1875,15.1875 L17.4375,15.1875 C17.7484217,15.1875 18,14.9359217 18,14.625 C18,14.3140783 17.7468746,14.0625 17.4375,14.0625 Z" id="Shape"></path>
                </g>
            </g>
        </g>
    </g>
</svg>