<?xml version="1.0" encoding="UTF-8"?>
<svg width="13px" height="14px" viewBox="0 0 13 14" version="1.1" xmlns="http://www.w3.org/2000/svg" xmlns:xlink="http://www.w3.org/1999/xlink">
    <title></title>
    <g id="📖-Booking-Flow" stroke="none" stroke-width="1" fill="none" fill-rule="evenodd">
        <g id="Services---Single---Filter---50-Min" transform="translate(-268.000000, -291.000000)" fill="#000000" fill-rule="nonzero">
            <g id="Info-Line" transform="translate(268.000000, 290.000000)">
                <g id="" transform="translate(0.000000, 1.625000)">
                    <path d="M6.5,0 C2.90976578,0 0,2.90976578 0,6.5 C0,10.0902342 2.90976578,13 6.5,13 C10.0902342,13 13,10.0902342 13,6.5 C13,2.90976578 10.0902342,0 6.5,0 Z M6.5,3.25 C6.94865268,3.25 7.3125,3.61384809 7.3125,4.0625 C7.3125,4.51115191 6.94865268,4.875 6.5,4.875 C6.05134732,4.875 5.6875,4.51191437 5.6875,4.0625 C5.6875,3.61308563 6.05058601,3.25 6.5,3.25 Z M7.515625,9.75 L5.484375,9.75 C5.14921883,9.75 4.875,9.47832 4.875,9.140625 C4.875,8.80293 5.14794922,8.53125 5.484375,8.53125 L5.890625,8.53125 L5.890625,6.90625 L5.6875,6.90625 C5.35107422,6.90625 5.078125,6.63330078 5.078125,6.296875 C5.078125,5.96044922 5.35234383,5.6875 5.6875,5.6875 L6.5,5.6875 C6.83642578,5.6875 7.109375,5.96044922 7.109375,6.296875 L7.109375,8.53125 L7.515625,8.53125 C7.85205078,8.53125 8.125,8.80419922 8.125,9.140625 C8.125,9.47705078 7.85332,9.75 7.515625,9.75 Z" id="Shape"></path>
                </g>
            </g>
        </g>
    </g>
</svg>