<?xml version="1.0" encoding="UTF-8"?>
<svg width="33px" height="33px" viewBox="0 0 33 33" version="1.1" xmlns="http://www.w3.org/2000/svg" xmlns:xlink="http://www.w3.org/1999/xlink">
    <title>black icon-11</title>
    <g id="â­-Symbols" stroke="none" stroke-width="1" fill="none" fill-rule="evenodd">
        <g id="Icon/Illustration/Placeholder" transform="translate(-11.000000, -12.000000)" fill="#FFFFFF" fill-rule="nonzero" stroke="#FFFFFF" stroke-width="0.5">
            <g id="black-icon-11" transform="translate(11.609756, 12.975610)">
                <path d="M17.0313589,7.73626215 C17.134552,7.62624997 17.2196423,7.53049269 17.3099707,7.43998323 C19.2461094,5.49997174 21.1824762,3.56018914 23.1190711,1.62063543 C23.8388862,0.880343709 24.7572534,0.364567673 25.7633047,0.135573296 C26.9710283,-0.152817921 28.2428034,0.0225088302 29.3278317,0.626978536 C30.8652085,1.46016656 31.7872357,2.77054583 32.0358168,4.49367124 C32.257072,5.88852724 31.8778427,7.31196463 30.9921782,8.41096937 C30.8122174,8.63828123 30.6189947,8.85473609 30.4135217,9.05920075 C28.5204425,10.9602349 26.6251755,12.859081 24.7277207,14.7557391 C24.3251388,15.1584667 24.4157568,15.1500782 24.0067018,14.7408917 C21.7818387,12.515299 19.5582775,10.2884024 17.336018,8.06020183 C17.2359075,7.9598871 17.1415907,7.85376803 17.0313589,7.73626215 Z M24.3735483,14.0107948 C26.2911473,12.0915961 28.2098848,10.2165045 30.0737137,8.28816733 C31.1201106,7.20554905 31.493283,5.87121125 31.2191929,4.36636009 C30.9875108,3.18829706 30.2880892,2.15498913 29.2812529,1.50329609 C28.2744166,0.851603048 27.0465065,0.63741057 25.8789899,0.909816882 C25.044874,1.11096985 24.2840184,1.5429435 23.683258,2.1564377 C21.8964998,3.93764365 20.1135909,5.72272123 18.3345314,7.51167043 C18.1132152,7.7335837 18.1143611,7.73959378 18.3545003,7.9809131 C19.1011182,8.73120972 19.8488176,9.48042471 20.5975986,10.2285581 C21.8472348,11.4802606 23.0968562,12.7319768 24.3735483,14.0107948 L24.3735483,14.0107948 Z" id="Shape"></path>
                <path d="M15.0662021,7.70244897 L7.71453811,15.0528455 C7.65663965,14.9991181 7.57151107,14.9250851 7.49190426,14.8455275 C5.49693279,12.8517744 3.50228664,10.857696 1.50796581,8.8632924 C0.455159282,7.85039002 -0.0926911951,6.42189022 0.0128696239,4.96488456 C0.119455734,3.15725127 0.96252778,1.74259275 2.5158552,0.770611544 C3.32851443,0.253225983 4.27509892,-0.0144919781 5.23840766,0.000605056338 C6.62406559,0.0205866349 7.85438023,0.489044472 8.85006138,1.47979805 C10.8699675,3.48971353 12.8855244,5.50399901 14.8967322,7.52265449 C14.9577286,7.58365572 15.0151962,7.64818772 15.0662021,7.70244897 Z M5.24003427,0.769561254 C3.80638651,0.830766089 2.61118172,1.36722833 1.72395914,2.50318263 C1.03302571,3.36140927 0.700308818,4.45328311 0.795254389,5.55090409 C0.887566107,6.70854452 1.39033989,7.67504211 2.22483315,8.49496468 C3.96593043,10.2056622 5.68161417,11.9422184 7.4077653,13.6681252 C7.46940868,13.7297633 7.53580646,13.7873071 7.59220124,13.8533934 C7.7077014,13.9887504 7.81106658,13.9625031 7.91474094,13.840924 C7.94292716,13.8078746 7.97627629,13.7792474 8.00709736,13.7484339 C9.92842707,11.8274339 11.849573,9.90624762 13.7705352,7.98487514 C14.0079302,7.74728617 14.0084902,7.74010049 13.7802439,7.51169348 C11.9419133,5.67207229 10.1019167,3.8341275 8.26025427,1.99785912 C7.42633716,1.17115064 6.38123204,0.827401686 5.24003427,0.769561254 Z" id="Shape"></path>
                <path d="M8.51570955,28.0422443 C8.51349122,27.5142801 8.63388103,26.9937576 8.86640462,26.5260979 C9.70548031,24.8024692 10.5431413,23.0780786 11.3793876,21.3529261 C11.3920297,21.326888 11.4015245,21.2990366 11.4153702,21.273787 C11.5069156,21.1068486 11.6007675,20.9309437 11.8158898,20.9437491 C12.0069933,20.9551211 12.0857556,21.114579 12.1641942,21.2761689 C12.7303767,22.4425188 13.2990316,23.6075361 13.870159,24.7712208 C14.1614336,25.3670636 14.4635442,25.9573392 14.7421721,26.5596741 C15.111453,27.3388312 15.1675577,28.2418467 14.8978349,29.0650958 C14.4267868,30.5290935 13.0915627,31.4863436 11.6264451,31.4104236 C10.1613275,31.3345035 8.92165687,30.2438265 8.58916778,28.7381907 C8.55054123,28.5081102 8.52601471,28.275647 8.51570955,28.0422443 Z M11.7867305,22.1594209 C10.9858667,23.8073613 10.2197321,25.369408 9.46779536,26.939009 C9.21868587,27.4687897 9.16712602,28.0777489 9.32329704,28.6456389 C9.49773395,29.3693339 9.94871088,29.9846199 10.5690851,30.3453178 C11.1894594,30.7060158 11.9238579,30.7799306 12.597803,30.5495017 C14.0459915,30.0413158 14.7932063,28.2974895 14.0747868,26.830244 C13.3667171,25.3841329 12.6696116,23.9320659 11.9666872,22.483153 C11.925225,22.3976918 11.8747611,22.3170756 11.7867305,22.1594209 L11.7867305,22.1594209 Z" id="Shape"></path>
                <path d="M19.6406035,19.4668347 C19.7545121,20.9109047 18.6424818,22.5162955 16.9637057,22.8538768 C15.4446016,23.1593502 13.4178122,22.1308265 13.1256264,19.8769937 C13.0464783,19.235944 13.1595438,18.5850089 13.4492217,18.0140072 C14.2781655,16.3193643 15.1108995,14.626749 15.9474236,12.9361616 C15.9966002,12.8317164 16.0530881,12.7312126 16.1164263,12.6354704 C16.3021052,12.3659091 16.5318608,12.368435 16.716156,12.641268 C16.769999,12.726055 16.8178674,12.8148283 16.8593819,12.906884 C17.6736629,14.5887135 18.4873714,16.2708448 19.3005072,17.953278 C19.5361461,18.4410277 19.6958491,18.9481323 19.6406035,19.4668347 Z M16.4294372,13.6616367 C16.3897802,13.7077486 16.3533729,13.7568066 16.3205017,13.8084248 C15.5815569,15.3198212 14.8438448,16.8318715 14.1073653,18.3445759 C13.9266561,18.7238902 13.839654,19.1444818 13.8542962,19.5679803 C13.8782363,20.3519137 14.2306499,21.0851762 14.8179578,21.5730587 C15.4052657,22.0609411 16.1680393,22.2540755 16.9037329,22.1011772 C17.6990509,21.9508169 18.3775804,21.411676 18.7291842,20.6507237 C19.0807879,19.8897714 19.0630278,18.9988535 18.681404,18.2538831 C18.4155223,17.7286409 18.1574252,17.1990629 17.8984227,16.6700463 C17.4120838,15.6766888 16.9276786,14.682296 16.4294372,13.6616367 Z" id="Shape"></path>
                <path d="M24.2369338,27.9258666 C24.206387,29.6897915 23.0321159,31.1087703 21.4498858,31.3772495 C19.7581833,31.6399054 18.1580359,30.4929784 17.7718071,28.7409377 C17.6056408,28.0403928 17.6835895,27.3004182 17.9915269,26.6551171 C18.5192233,25.5524295 19.0501138,24.4514387 19.5841983,23.3521446 C19.9027812,22.6937319 20.2255618,22.037566 20.5448129,21.3795065 C20.6459476,21.1710406 20.7305953,20.928776 21.0039818,20.9437506 C21.2549426,20.9575007 21.314256,21.1991012 21.4072113,21.3916265 C22.2310536,23.097916 23.054975,24.8041635 23.8789756,26.510369 C24.0892854,26.9514079 24.2111276,27.4332163 24.2369338,27.9258666 L24.2369338,27.9258666 Z M20.9945314,22.1882992 C20.9611351,22.2266602 20.9301723,22.2672883 20.9018431,22.3099208 C20.1495278,23.8501929 19.3880457,25.3856645 18.6522909,26.9346515 C18.4227635,27.4065543 18.3565008,27.9477466 18.4648672,28.4654124 C18.6807442,29.5388972 19.2839275,30.2479354 20.2614444,30.5572031 C21.247562,30.8691931 22.1320144,30.5942295 22.8461222,29.8139906 C23.5893012,28.9762199 23.740387,27.7327089 23.2213957,26.7253056 C22.5913672,25.4485173 21.9691098,24.167494 21.3429632,22.8885875 C21.2367812,22.671715 21.1279609,22.4562741 20.9945314,22.1882992 Z" id="Shape"></path>
                <path d="M13.1003064,28.5873733 C13.0761709,29.3647934 12.2720598,30.1164311 11.4768826,30.1048544 C11.305498,30.1170108 11.1548855,29.9953234 11.1358885,29.8293493 C11.1354211,29.6977524 11.2452689,29.5903523 11.4383393,29.5663618 C12.0740746,29.4873697 12.4484625,29.1526075 12.5612113,28.5335394 C12.6156417,28.2346759 12.7160022,28.127564 12.8682273,28.1438737 C13.03731,28.1619876 13.1092497,28.2994543 13.1003064,28.5873733 Z" id="Path"></path>
                <path d="M16.7131957,20.9430894 C16.518045,20.9439995 16.4021933,20.865078 16.3804813,20.7164173 C16.3557632,20.5471703 16.4392611,20.4476233 16.6724394,20.4149971 C17.025254,20.3656333 17.3444154,20.2480038 17.5452001,19.9508534 C17.6428905,19.7776884 17.7190473,19.5936652 17.7720397,19.4027242 C17.7940175,19.341868 17.7709921,19.2651451 17.7938255,19.2048822 C17.8440167,19.0724141 17.9325259,18.9600024 18.0943348,18.9825774 C18.1644029,18.9860617 18.2300699,19.0171237 18.2764538,19.0687239 C18.3228377,19.120324 18.346011,19.1880932 18.340722,19.256673 C18.3345059,19.4431961 18.3049752,19.6282676 18.2527911,19.8077422 C18.0295673,20.4626526 17.416971,20.9143976 16.7131957,20.9430894 L16.7131957,20.9430894 Z" id="Path"></path>
                <path d="M22.9268293,28.541846 C22.9061807,29.2914469 22.2390277,30.0512931 21.2968311,30.10462 C21.1392409,30.1174543 20.996797,30.0136394 20.9657634,29.8633339 C20.9391883,29.7073812 21.0424512,29.6055452 21.2650139,29.5642313 C21.3728545,29.5482084 21.4795013,29.5253811 21.5842745,29.495895 C21.9604244,29.3876194 22.2484074,29.093064 22.3397461,28.7231821 C22.3683096,28.6207911 22.3880645,28.5160818 22.4116351,28.4123926 C22.4535438,28.2280019 22.5618548,28.1199189 22.6966363,28.1461834 C22.765886,28.1544442 22.8286316,28.1898132 22.8702854,28.2440675 C22.9119392,28.2983219 22.9288724,28.366735 22.9171482,28.4334017 C22.9160417,28.4697909 22.9192904,28.5061818 22.9268293,28.541846 Z" id="Path"></path>
            </g>
        </g>
    </g>
</svg>