<?xml version="1.0" encoding="UTF-8"?>
<svg width="8px" height="8px" viewBox="0 0 8 8" version="1.1" xmlns="http://www.w3.org/2000/svg" xmlns:xlink="http://www.w3.org/1999/xlink">
    <title></title>
    <g id="📒-Client-Portal" stroke="none" stroke-width="1" fill="none" fill-rule="evenodd">
        <g id="Appointments" transform="translate(-1257.000000, -125.000000)" fill="#404040" fill-rule="nonzero">
            <g id="My-Account-Dropdown" transform="translate(1230.000000, 46.000000)">
                <g id="Sign-Out" transform="translate(20.000000, 72.000000)">
                    <g id="" transform="translate(7.000000, 7.500000)">
                        <path d="M2.5,6 L1.5,6 C1.22390628,6 1,5.77609396 1,5.5 L1,1.5 C1,1.22390652 1.22390628,1 1.5,1 L2.5,1 C2.77609372,1 3,0.776093483 3,0.5 C3,0.223906517 2.77656245,0 2.5,0 L1.5,0 C0.671562433,0 0,0.671562672 0,1.5 L0,5.5 C0,6.32843733 0.671562433,7 1.5,7 L2.5,7 C2.77609372,7 3,6.77609396 3,6.5 C3,6.22390604 2.77656245,6 2.5,6 Z M7.8531251,3.1468749 L5.8531251,1.1468749 C5.65765619,0.951406002 5.34124994,0.951718807 5.14609385,1.1468749 C4.95078135,1.3421874 4.95078135,1.65859365 5.14609385,1.85390615 L6.29374981,3 L3,3 C2.72343755,3 2.5,3.22343755 2.5,3.5 C2.5,3.77656269 2.72359371,4 3,4 L6.29374981,4 L5.14718723,5.14656258 C4.95187473,5.34187508 4.95187473,5.65828133 5.14718723,5.85359383 C5.34249973,6.04890633 5.65890598,6.04890633 5.85421848,5.85359383 L7.85421848,3.85359383 C8.04843712,3.6578126 8.04843712,3.3421874 7.8531251,3.1468749 Z" id="Shape"></path>
                    </g>
                </g>
            </g>
        </g>
    </g>
</svg>