<?xml version="1.0" encoding="UTF-8"?>
<svg width="9px" height="13px" viewBox="0 0 9 13" version="1.1" xmlns="http://www.w3.org/2000/svg" xmlns:xlink="http://www.w3.org/1999/xlink">
    <title></title>
    <g id="📖-Booking-Flow" stroke="none" stroke-width="1" fill="none" fill-rule="evenodd">
        <g id="Schedule---Single" transform="translate(-137.000000, -249.000000)" fill="#404040" fill-rule="nonzero">
            <g id="Filters" transform="translate(122.000000, 239.000000)">
                <g id="Stacked-Group" transform="translate(15.000000, 6.000000)">
                    <g id="" transform="translate(0.000000, 4.500000)">
                        <path d="M4.5,0 C2.0149219,0 0,2.0149219 0,4.5 C0,6.31429696 0.632109404,6.8210156 4.03828132,11.758594 C4.1484375,11.9203126 4.32421875,12 4.5,12 C4.67578125,12 4.85039055,11.9193513 4.96218753,11.7581248 C8.3671875,6.8203125 9,6.31406236 9,4.5 C9,2.0149219 6.984375,0 4.5,0 Z M4.5,10.4484372 C4.08539057,9.85171866 3.71671879,9.3264842 3.38953114,8.86054659 C1.34906244,5.95546889 1.125,5.59921861 1.125,4.5 C1.125,2.63906264 2.63906264,1.125 4.50000036,1.125 C6.36093771,1.125 7.87500036,2.63906264 7.87500036,4.5 C7.87500036,5.59875011 7.65089071,5.9547658 5.61046922,8.86171889 C5.28281271,9.30703139 4.91484404,9.85312486 4.50000036,10.4484372 L4.5,10.4484372 Z M4.50000036,2.60390639 C3.46453178,2.60390639 2.62500036,3.4434371 2.62500036,4.47890639 C2.62500036,5.51437533 3.46406293,6.35390639 4.50000036,6.35390639 C5.53546894,6.35390639 6.37500036,5.51437497 6.37500036,4.47890639 C6.37500036,3.44343781 5.53593779,2.60390639 4.50000036,2.60390639 Z M4.50000036,5.25 C4.08750021,5.25 3.75000036,4.91250014 3.75000036,4.5 C3.75000036,4.08749986 4.08656287,3.75 4.50000036,3.75 C4.91343784,3.75 5.25000036,4.08656216 5.25000036,4.5 C5.25000036,4.91343749 4.9125005,5.25 4.50000036,5.25 Z" id="Shape"></path>
                    </g>
                </g>
            </g>
        </g>
    </g>
</svg>