<?xml version="1.0" encoding="UTF-8"?>
<svg width="12px" height="13px" viewBox="0 0 12 13" version="1.1" xmlns="http://www.w3.org/2000/svg" xmlns:xlink="http://www.w3.org/1999/xlink">
    <title></title>
    <g id="📖-Booking-Flow" stroke="none" stroke-width="1" fill="none" fill-rule="evenodd">
        <g id="Schedule---Single" transform="translate(-273.000000, -249.000000)" fill="#404040" fill-rule="nonzero">
            <g id="Filters" transform="translate(122.000000, 239.000000)">
                <g id="Time" transform="translate(136.000000, 0.000000)">
                    <g id="Stacked-Group" transform="translate(15.000000, 6.000000)">
                        <g id="" transform="translate(0.000000, 4.500000)">
                            <path d="M5.4375,2.8125 C5.4375,2.50078154 5.68828118,2.25 6,2.25 C6.31171846,2.25 6.5625,2.50078154 6.5625,2.8125 L6.5625,5.69999993 L8.56171846,7.03125 C8.81953096,7.20468736 8.88984346,7.55390596 8.69765639,7.81171846 C8.54531264,8.06953096 8.19609404,8.13984346 7.93828154,7.94765639 L5.68828118,6.44765639 C5.53125,6.36328125 5.4375,6.1875 5.4375,5.97890639 L5.4375,2.8125 Z M6,0 C9.31406236,0 12,2.68593764 12,6 C12,9.31406236 9.31406236,12 6,12 C2.68593764,12 0,9.31406236 0,6 C0,2.68593764 2.68593764,0 6,0 Z M1.125,6 C1.125,8.69296861 3.30703139,10.875 6,10.875 C8.69296861,10.875 10.875,8.69296861 10.875,6 C10.875,3.30703139 8.69296861,1.125 6,1.125 C3.30703139,1.125 1.125,3.30703139 1.125,6 Z" id="Shape"></path>
                        </g>
                    </g>
                </g>
            </g>
        </g>
    </g>
</svg>