<?xml version="1.0" encoding="UTF-8"?>
<svg width="11px" height="11px" viewBox="0 0 11 11" version="1.1" xmlns="http://www.w3.org/2000/svg" xmlns:xlink="http://www.w3.org/1999/xlink">
    <title>Shape</title>
    <g id="â­-Symbols" stroke="none" stroke-width="1" fill="none" fill-rule="evenodd">
        <g id="UI-Icon/Reschedule/White" transform="translate(-1.000000, 0.000000)" fill="#FFFFFF" fill-rule="nonzero">
            <g id="ï„" transform="translate(1.250000, 0.749756)">
                <path d="M7.4824217,8.75024438 L1.2324217,8.75024438 L1.2324217,2.50024438 L3.28124994,2.50024438 L4.53124994,1.25024438 L1.2324217,1.25024438 C0.559570193,1.25024438 0,1.80981457 0,2.50024438 L0,8.75024438 C0,9.44067419 0.559570193,10.0002444 1.2324217,10.0002444 L7.46484369,10.0002444 C8.15507799,10.0002444 8.69726568,9.44067419 8.69726568,8.75024438 L8.69726568,5.45141613 L7.4647674,6.70122063 L7.4647674,8.75024438 L7.4824217,8.75024438 Z M9.72460896,0.824267864 L9.1751948,0.274658203 C8.80898386,-0.0915527344 8.21542948,-0.0915527344 7.84941345,0.274658203 L7.09511667,1.02915049 L8.97031218,2.90434599 L9.72460896,2.14985371 C10.0917968,1.78403378 10.0917968,1.1904788 9.72460896,0.824267864 Z M3.38725543,4.86411154 L3.01538056,6.72387719 C2.98260695,6.88786149 3.12719709,7.0324707 3.29116172,6.99965835 L5.15112287,6.62778318 C5.24186498,6.60962522 5.32518542,6.56502903 5.39057589,6.49961889 L8.5287112,3.34668875 L6.6535157,1.47149384 L3.51420856,4.62583065 C3.44975537,4.69028354 3.40483344,4.77426767 3.38725543,4.86411154 Z" id="Shape"></path>
            </g>
        </g>
    </g>
</svg>