<?xml version="1.0" encoding="UTF-8"?>
<svg width="11px" height="9px" viewBox="0 0 11 9" version="1.1" xmlns="http://www.w3.org/2000/svg" xmlns:xlink="http://www.w3.org/1999/xlink">
    <title></title>
    <g id="📖-Booking-Flow" stroke="none" stroke-width="1" fill="none" fill-rule="evenodd">
        <g id="Schedule---Single" transform="translate(-158.000000, -324.000000)" fill="#000000" fill-rule="nonzero">
            <g id="Calendar" transform="translate(122.000000, 293.000000)">
                <g id="Week/Arrows" transform="translate(30.000000, 24.000000)">
                    <g id="Button/-Carousel-Arrow-Copy-2" transform="translate(11.000000, 11.000000) scale(-1, 1) translate(-11.000000, -11.000000) ">
                        <g id="" transform="translate(5.940000, 7.250285)">
                            <path d="M5.68476543,0.142156413 L9.46601543,3.75153141 C9.56806621,3.84887724 9.62581596,3.98377745 9.62581596,4.12492996 C9.62581596,4.26608246 9.56806621,4.40078925 9.46601543,4.4983285 L5.68476543,8.1077035 C5.47864446,8.30374842 5.15238264,8.29635792 4.95558569,8.09024744 C4.75887462,7.88614588 4.76626545,7.55850916 4.97304174,7.3610677 L7.82401791,4.6411457 L0.515839726,4.6411457 C0.231171757,4.6411457 0,4.40997361 0,4.12530564 C0,3.84063768 0.231171757,3.60989537 0.515839726,3.60989537 L7.82267579,3.60989537 L4.9716993,0.889973691 C4.76523411,0.692156544 4.75878873,0.364519826 4.95429668,0.159773758 C5.15195286,-0.0464763729 5.45917949,-0.0537809817 5.68476543,0.142156413 Z" id="Path"></path>
                        </g>
                    </g>
                </g>
            </g>
        </g>
    </g>
</svg>