<?xml version="1.0" encoding="UTF-8"?>
<svg width="71px" height="70px" viewBox="0 0 71 70" version="1.1" xmlns="http://www.w3.org/2000/svg" xmlns:xlink="http://www.w3.org/1999/xlink">
    <title>Icon/Illustration/Placeholder</title>
    <g id="📖-Booking-Flow" stroke="none" stroke-width="1" fill="none" fill-rule="evenodd">
        <g id="Services---Single---Filter---30-Min" transform="translate(-1128.000000, -331.000000)">
            <g id="Cart" transform="translate(1009.000000, 247.000000)">
                <g id="Icon/Illustration/Placeholder" transform="translate(119.500000, 84.000000)">
                    <rect id="Rectangle" fill="#000000" x="0" y="0" width="70" height="70" rx="35"></rect>
                    <g id="" transform="translate(17.125051, 20.750000)" fill="#FFFFFF" fill-rule="nonzero">
                        <path d="M10.312449,24.375 C8.75912905,24.375 7.55268306,25.6341791 7.55268306,27.1875 C7.55268306,28.7408209 8.75971466,30 10.312449,30 C11.8651834,30 13.072215,28.7408209 13.072215,27.1875 C13.072215,25.6341791 11.8651834,24.375 10.312449,24.375 Z M10.312449,29.0625 C9.27885532,29.0625 8.49018306,28.2210946 8.49018306,27.1875 C8.49018306,26.1539054 9.33158934,25.3125 10.312449,25.3125 C11.2933087,25.3125 12.134715,26.1539054 12.134715,27.1875 C12.134715,28.2210946 11.3436994,29.0625 10.312449,29.0625 Z M27.134715,24.375 C25.5813941,24.375 24.374949,25.6341791 24.374949,27.1875 C24.374949,28.7408209 25.6341282,30 27.134715,30 C28.6880359,30 29.894481,28.7408209 29.894481,27.1875 C29.894481,25.6341791 28.7401834,24.375 27.134715,24.375 Z M27.134715,29.0625 C26.1011222,29.0625 25.312449,28.2210946 25.312449,27.1875 C25.312449,26.1539054 26.1538544,25.3125 27.134715,25.3125 C28.1155756,25.3125 28.956981,26.1539054 28.956981,27.1875 C28.956981,28.2210946 28.2186994,29.0625 27.134715,29.0625 Z M33.4569803,4.29960966 C33.1874505,3.95038962 32.7831522,3.75 32.2909632,3.75 L5.88276118,3.75 L5.14506519,0.368964672 C5.09877563,0.153808594 4.90834594,0 4.68744725,0 L0.468755364,0 C0.209653974,0 0,0.209648609 0,0.46875 C0,0.727851391 0.209653974,0.9375 0.468755364,0.9375 L4.30957586,0.9375 L8.91738921,22.1308601 C8.91205698,22.3476559 9.15229082,22.5 9.37494725,22.5 L29.4784632,22.5 C29.7375646,22.5 29.9472132,22.2903514 29.9472132,22.03125 C29.9472132,21.7721486 29.7375646,21.5625 29.4784632,21.5625 L9.75580662,21.5625 L9.14057225,18.75 L28.3710417,18.75 C29.4310024,18.75 30.3620562,18.0351555 30.6362745,17.0103514 L33.7007269,5.52011669 C33.8143989,5.09296775 33.7265083,4.64882791 33.4569785,4.29960966 L33.4569803,4.29960966 Z M29.7304156,16.769532 C29.5663539,17.3847663 29.0097132,17.8125 28.3710417,17.8125 L8.93549412,17.8125 L6.08197868,4.6875 L32.3378402,4.6875 C32.4843246,4.6875 32.619794,4.75435495 32.7095586,4.87060547 C32.799266,4.98685598 32.8285629,5.13521433 32.791062,5.27712822 L29.7304165,16.769532 L29.7304156,16.769532 Z M22.9159641,10.78125 L19.6874481,10.78125 L19.6874481,7.5 C19.6874481,7.24089861 19.4777995,7.03125 19.2714322,7.03125 C19.0650648,7.03125 18.7499481,7.24218786 18.7499481,7.5 L18.7496853,10.78125 L15.4686981,10.78125 C15.210886,10.78125 14.9999481,10.9921879 14.9999481,11.25 C14.9999481,11.5078121 15.2094215,11.71875 15.4684639,11.71875 L18.6969799,11.71875 L18.7499481,15 C18.7499481,15.2591014 18.9593625,15.46875 19.2184639,15.46875 C19.4775653,15.46875 19.6344799,15.2591014 19.6344799,15 L19.6344799,11.71875 L22.8629959,11.71875 C23.1220973,11.71875 23.2790118,11.5091014 23.2790118,11.25 C23.2790118,10.9908986 23.2265103,10.78125 22.9159641,10.78125 Z" id="Shape"></path>
                    </g>
                </g>
            </g>
        </g>
    </g>
</svg>