<?xml version="1.0" encoding="UTF-8"?>
<svg width="11px" height="13px" viewBox="0 0 11 13" version="1.1" xmlns="http://www.w3.org/2000/svg" xmlns:xlink="http://www.w3.org/1999/xlink">
    <title></title>
    <g id="📖-Booking-Flow" stroke="none" stroke-width="1" fill="none" fill-rule="evenodd">
        <g id="Schedule---Single" transform="translate(-385.000000, -249.000000)" fill="#404040" fill-rule="nonzero">
            <g id="Filters" transform="translate(122.000000, 239.000000)">
                <g id="Esthetician" transform="translate(248.000000, 0.000000)">
                    <g id="Stacked-Group" transform="translate(15.000000, 6.000000)">
                        <g id="" transform="translate(0.000000, 4.500000)">
                            <path d="M6.375,7.125 L4.125,7.125 C1.84687507,7.125 0,8.97187471 0,11.25 C0,11.6641409 0.335859418,12 0.75,12 L9.75,12 C10.1641409,12 10.5,11.6641409 10.5,11.25 C10.5,8.97187471 8.65312529,7.125 6.375,7.125 Z M1.1482029,10.875 C1.33335936,9.39609361 2.59687507,8.25 4.125,8.25 L6.375,8.25 C7.90218759,8.25 9.16640639,9.39726591 9.3515625,10.875 L1.1482029,10.875 L1.1482029,10.875 Z M5.24999964,6 C6.90679657,6 8.24999964,4.65679693 8.24999964,3 C8.24999964,1.34320307 6.90679657,0 5.24999964,0 C3.59320271,0 2.24999964,1.34320307 2.24999964,3 C2.24999964,4.65703118 3.59296846,6 5.24999964,6 Z M5.24999964,1.125 C6.28382742,1.125 7.12499964,1.96617222 7.12499964,3 C7.12499964,4.03382778 6.28382742,4.875 5.24999964,4.875 C4.21617186,4.875 3.37499964,4.03359389 3.37499964,3 C3.37499964,1.96617222 4.21640575,1.125 5.24999964,1.125 Z" id="Shape"></path>
                        </g>
                    </g>
                </g>
            </g>
        </g>
    </g>
</svg>