<?xml version="1.0" encoding="UTF-8"?>
<svg width="11px" height="10px" viewBox="0 0 11 10" version="1.1" xmlns="http://www.w3.org/2000/svg" xmlns:xlink="http://www.w3.org/1999/xlink">
    <title></title>
    <g id="⭐-Symbols" stroke="none" stroke-width="1" fill="none" fill-rule="evenodd" opacity="0.7">
        <g id="Header/Main/Desktop" transform="translate(-165.000000, -18.000000)" fill="#404040" fill-rule="nonzero">
            <g id="Shop-Tab" transform="translate(165.000000, 17.000000)">
                <g id="" transform="translate(0.000000, 1.258594)">
                    <path d="M4.50703114,0.390234053 L4.31191412,0.764648438 L3.01992193,3.24140614 L7.10507834,3.24140614 L5.81308615,0.764648438 L5.61796886,0.390234053 L6.36679709,0 L6.56191438,0.374413848 L8.05781239,3.24140614 L10.125,3.24140614 L10.125,4.36640614 L9.5625,4.36640614 L8.4375,8.86640614 L1.6875,8.86640614 L0.5625,4.36640614 L0,4.36640614 L0,3.24140614 L2.06718761,3.24140614 L3.56308615,0.374413848 L3.75820345,0 L4.50703141,0.390234053 L4.50703114,0.390234053 Z M2.53125027,5.06953114 C2.76503938,5.06953114 2.95312527,4.88144499 2.95312527,4.64765614 C2.95312527,4.41386729 2.76503938,4.22578114 2.53125027,4.22578114 C2.29746115,4.22578114 2.10937527,4.41386729 2.10937527,4.64765614 C2.10937527,4.88144499 2.29746115,5.06953114 2.53125027,5.06953114 Z M8.01562527,4.64765614 C8.01562527,4.41386729 7.82753912,4.22578114 7.59375027,4.22578114 C7.35996142,4.22578114 7.17187527,4.41386729 7.17187527,4.64765614 C7.17187527,4.88144499 7.35996142,5.06953114 7.59375027,5.06953114 C7.82753912,5.06953114 8.01562527,4.88144499 8.01562527,4.64765614 Z" id="Shape"/>
                </g>
            </g>
        </g>
    </g>
</svg>