<?xml version="1.0" encoding="UTF-8"?>
<svg width="16px" height="13px" viewBox="0 0 16 13" version="1.1" xmlns="http://www.w3.org/2000/svg" xmlns:xlink="http://www.w3.org/1999/xlink">
    <title></title>
    <g id="📖-Booking-Flow" stroke="none" stroke-width="1" fill="none" fill-rule="evenodd">
        <g id="Review" transform="translate(-142.000000, -384.000000)" fill="#B3B3B3" fill-rule="nonzero">
            <g id="Payment-Details" transform="translate(122.000000, 239.000000)">
                <g id="Form-Field---On-White" transform="translate(0.000000, 100.000000)">
                    <g id="Field---Idle" transform="translate(0.000000, 27.000000)">
                        <g id="" transform="translate(20.000000, 18.625000)">
                            <path d="M14,0 L1.75000042,0 C0.783398688,0 0,0.783671975 0,1.75 L0,2.625 L15.75,2.625 L15.75,1.75 C15.75,0.783671975 14.965234,0 14,0 L14,0 Z M0,10.5 C0,11.466328 0.783398271,12.25 1.75,12.25 L14,12.25 C14.9666009,12.25 15.75,11.466328 15.75,10.5 L15.75,5.25 L0,5.25 L0,10.5 Z M5.22539079,8.96875 C5.22539079,8.84783602 5.32333612,8.75 5.44414079,8.75 L9.35703158,8.75 C9.47783625,8.75 9.57578158,8.84783602 9.57578158,8.96875 L9.625,9.40625 C9.625,9.52705467 9.52705467,9.625 9.40625,9.625 L5.46875,9.625 C5.34843767,9.625 5.25,9.52656233 5.25,9.40625 L5.22539079,8.96875 Z M1.72539079,8.96875 C1.72539079,8.84783602 1.82333612,8.75 1.94414079,8.75 L4.13164121,8.75 C4.25244588,8.75 4.35039121,8.84783602 4.35039121,8.96875 L4.37500042,9.40625 C4.37500042,9.52656233 4.27656275,9.625 4.15625042,9.625 L1.96875042,9.625 C1.84789109,9.625 1.75000042,9.52656233 1.75000042,9.40625 L1.72539079,8.96875 Z" id="Shape"></path>
                        </g>
                    </g>
                </g>
            </g>
        </g>
    </g>
</svg>