<?xml version="1.0" encoding="UTF-8"?>
<svg width="11px" height="12px" viewBox="0 0 11 12" version="1.1" xmlns="http://www.w3.org/2000/svg" xmlns:xlink="http://www.w3.org/1999/xlink">
    <title></title>
    <g id="📖-Booking-Flow" stroke="none" stroke-width="1" fill="none" fill-rule="evenodd">
        <g id="Review" transform="translate(-122.000000, -429.000000)" fill="#000000" fill-rule="nonzero">
            <g id="Payment-Details" transform="translate(122.000000, 239.000000)">
                <g id="CC-Info" transform="translate(0.000000, 187.000000)">
                    <g id="" transform="translate(0.000000, 3.375000)">
                        <path d="M5.5,0 C2.46210951,0 0,2.46210951 0,5.5 C0,8.53789049 2.46210951,11 5.5,11 C8.53789049,11 11,8.53789049 11,5.5 C11,2.46210951 8.53789049,0 5.5,0 Z M5.5,9.96875 C3.03574225,9.96875 1.03125,7.96404302 1.03125,5.5 C1.03125,3.03595698 3.03574225,1.03125 5.5,1.03125 C7.96425807,1.03125 9.96875,3.03595698 9.96875,5.5 C9.96875,7.96404302 7.96425807,9.96875 5.5,9.96875 Z M5.5,7.21875 C5.11328125,7.21875 4.8125,7.51953125 4.8125,7.90625 C4.8125,8.29296875 5.09394544,8.59375 5.5,8.59375 C5.86738294,8.59375 6.1875,8.29296875 6.1875,7.90625 C6.1875,7.51953125 5.86738294,7.21875 5.5,7.21875 Z M6.21113294,2.75 L5.11328125,2.75 C4.27539062,2.75 3.609375,3.41601562 3.609375,4.25390625 C3.609375,4.53320312 3.84570312,4.76953125 4.125,4.76953125 C4.40429688,4.76953125 4.640625,4.53320312 4.640625,4.25390625 C4.640625,3.99609375 4.83613294,3.78125 5.09394544,3.78125 L6.19179714,3.78125 C6.46894544,3.78125 6.703125,3.99609375 6.703125,4.25390625 C6.703125,4.42578125 6.6171875,4.55683607 6.46679688,4.64277357 L5.2421875,5.39257812 C5.0703125,5.5 4.984375,5.671875 4.984375,5.84375 L4.984375,6.1875 C4.984375,6.46679688 5.22070312,6.703125 5.5,6.703125 C5.77929688,6.703125 6.015625,6.46679688 6.015625,6.1875 L6.015625,6.14453125 L6.98457044,5.54296875 C7.43574232,5.26367188 7.71503919,4.76953125 7.71503919,4.25390625 C7.734375,3.41601562 7.06835938,2.75 6.21113294,2.75 Z" id="Shape"></path>
                    </g>
                </g>
            </g>
        </g>
    </g>
</svg>