<?xml version="1.0" encoding="UTF-8"?>
<svg width="8px" height="8px" viewBox="0 0 8 8" version="1.1" xmlns="http://www.w3.org/2000/svg" xmlns:xlink="http://www.w3.org/1999/xlink">
    <title></title>
    <g id="📖-Booking-Flow" stroke="none" stroke-width="1" fill="none" fill-rule="evenodd">
        <g id="Services---Single---Filter---30-Min" transform="translate(-1273.000000, -519.000000)" fill="#404040" fill-rule="nonzero">
            <g id="Cart" transform="translate(1009.000000, 247.000000)">
                <g id="Location" transform="translate(30.000000, 232.000000)">
                    <g id="Icon/UI/Location" transform="translate(227.000000, 33.000000)">
                        <g id="" transform="translate(7.000017, 7.000000)">
                            <path d="M7.12029522,0.29296875 C6.92498272,0.0976877213 6.66873234,0 6.41404503,0 C6.15810746,0 5.90216988,0.09765625 5.70685738,0.29296875 L0.704826054,5.2953124 C0.570950922,5.4291563 0.477794585,5.59828091 0.436388192,5.78296852 L0.00498193197,7.70171833 C-0.0265806348,7.8453126 0.0962161391,8 0.24920052,8 C0.265559849,8 0.282262978,7.99838448 0.299169239,7.99499702 C0.299169239,7.99499702 1.6212005,7.71452808 2.21791929,7.57421589 C2.39823168,7.5317626 2.55963796,7.44104385 2.69057554,7.31015348 L7.70932573,2.29140329 C8.09979433,1.9009347 8.09838861,1.26921558 7.7079224,0.878746986 L7.12029451,0.29296875 L7.12029522,0.29296875 Z M2.15935701,6.7796874 C2.12631005,6.81273413 2.08899754,6.83379698 2.04516953,6.84410906 C1.76126331,6.91099977 1.30360692,7.01145267 0.909388003,7.09692144 L1.1679818,5.94723415 C1.17838806,5.90099955 1.20157569,5.85889053 1.23510688,5.82531214 L5.01479429,2.04562473 L5.95432561,2.98515606 L2.15935677,6.7796874 L2.15935701,6.7796874 Z" id="Shape"></path>
                        </g>
                    </g>
                </g>
            </g>
        </g>
    </g>
</svg>