<?xml version="1.0" encoding="UTF-8"?>
<svg width="81px" height="80px" viewBox="0 0 81 80" version="1.1" xmlns="http://www.w3.org/2000/svg" xmlns:xlink="http://www.w3.org/1999/xlink">
    <title>Icon/Illustration/Placeholder</title>
    <g id="📖-Booking-Flow" stroke="none" stroke-width="1" fill="none" fill-rule="evenodd">
        <g id="Who's-Coming" transform="translate(-525.000000, -421.000000)">
            <g id="Card---Just-Me" transform="translate(431.000000, 377.000000)">
                <g id="Icon/Illustration/Placeholder" transform="translate(94.500000, 44.000000)">
                    <rect id="Rectangle" fill="#000000" x="0" y="0" width="80" height="80" rx="40"></rect>
                    <g id="Group-16" transform="translate(16.428428, 15.703776)" fill="#FFFFFF">
                        <path d="M16.5487099,17.0240431 C17.4020889,16.5813363 18.3230623,16.201186 19.2114456,15.8342687 L19.3768104,15.7669003 C20.4209022,15.3590807 21.4565446,14.8947198 22.4656322,14.3798326 C23.4409225,15.6345694 27.0729133,19.8378777 33.0610511,21.5389303 L31.3905043,28.1386296 C30.386245,30.8730657 28.9921109,32.9241935 27.2491415,34.2342687 L27.2382782,34.2426897 C24.5719213,36.4658476 20.6961079,36.4730657 18.0225088,34.2595318 L17.9657778,34.2126145 L17.9271524,34.1897574 C15.9512238,32.6751709 14.5945081,30.5602837 13.6674995,27.567201 L12.3518231,21.1311108 C12.3409598,21.0865995 12.3264752,21.0444942 12.3071626,21.003592 C12.9239613,19.4769754 14.3132672,18.1741183 16.5487099,17.0240431 L16.5487099,17.0240431 Z M11.1387454,21.9443439 L11.1411595,21.9443439 L12.3614795,27.9064491 C12.4073471,28.0568251 12.4556288,28.204795 12.5039105,28.3515619 C11.6155272,27.9593815 10.8647468,27.0138175 10.4205552,26.1693063 C9.66373952,24.7365243 9.48509723,23.1641935 9.99446916,22.4315619 C10.2213931,22.1067499 10.6064397,21.9443439 11.1387454,21.9443439 L11.1387454,21.9443439 Z M29.8648026,4.98193785 C27.9359487,7.93291529 25.5653173,11.1918627 21.9284983,13.1443439 C20.956829,13.6616371 19.9067021,14.0923138 18.8831301,14.5121634 C17.9126679,14.9091559 16.9096156,15.3205845 15.9427745,15.8210356 C14.7007278,16.4634416 13.6964685,17.1479529 12.9022345,17.8950206 C13.7882037,15.3265995 15.6313576,13.484795 18.3954849,12.4093063 C20.6538614,11.5311108 22.7951548,11.4878025 23.200721,11.4878025 C23.2550379,11.4878025 23.2671084,11.4878025 23.2719365,11.4878025 C23.6400845,11.4878025 23.9430522,11.1894566 23.9466733,10.8201333 C23.9490874,10.4544191 23.6509479,10.1512612 23.3057337,10.1452461 C23.2200337,10.1428401 16.040545,10.0610356 12.6535838,15.3265995 C13.9125291,10.0249454 17.6398763,8.6065995 17.6845369,8.5909604 C18.0345792,8.46344161 18.2144285,8.07607319 18.086482,7.725998 C17.9561214,7.38073484 17.5722819,7.20148672 17.2306889,7.32178747 C17.1606804,7.34464461 10.2044946,9.89381755 10.9395834,20.5933664 C10.9178567,20.5945694 10.8973369,20.5957724 10.8756102,20.5969754 C10.0560283,19.0499078 9.762717,17.6640431 9.762717,15.403592 C9.762717,8.44299048 15.5311731,2.7816371 22.6225477,2.7816371 L22.6418604,2.7816371 C25.2333806,2.7816371 27.7235092,3.54193785 29.8648026,4.98193785 L29.8648026,4.98193785 Z M34.4974317,20.3792311 C34.4177669,20.3792311 34.3393091,20.3804341 34.2608514,20.3840431 C33.9482274,17.0661484 31.153924,13.9960732 30.8256084,13.645998 C30.6928338,13.5088551 30.5166056,13.4402837 30.3391703,13.4402837 C30.1725985,13.4402837 30.0048195,13.5016371 29.8732519,13.6243439 C29.6089096,13.8781784 29.5980462,14.3040431 29.8527322,14.5771258 C29.8792871,14.604795 32.3645876,17.2718627 32.857061,20.0580281 C27.8212797,18.4183288 24.6033044,14.8574266 23.6449127,13.6796822 C26.9618654,11.57081 29.1550616,8.53321604 30.9451056,5.79156191 C33.8226949,8.1747198 35.471515,11.6598326 35.4787572,15.404795 C35.4787572,17.6219378 35.4377178,18.7058476 34.4974317,20.3792311 L34.4974317,20.3792311 Z M34.4044894,21.7338175 C34.9452445,21.7265995 35.3471896,21.8890055 35.5777347,22.2222386 C36.0858996,22.9524642 35.9072573,24.524795 35.1516487,25.959983 C34.6398627,26.9356221 33.7647569,27.9858476 32.7472201,28.2613363 L34.4044894,21.7338175 Z M33.8951175,45.8216371 C31.6548466,45.3392311 30.0205111,44.0676521 29.0403926,42.0441935 C27.6788487,39.2243439 27.999922,35.9172762 28.1978769,35.2062987 C29.8394547,33.9371258 31.1949634,32.0796822 32.2306059,29.6784792 L32.2450904,29.6784792 C33.7985541,29.6784792 35.3351192,28.522389 36.353863,26.5855469 C37.1903435,24.999983 37.6224647,22.7984792 36.6954561,21.4571258 C36.4781884,21.1431409 36.1945334,20.8881033 35.8613897,20.7100581 C36.7859843,18.924795 36.8318519,17.6327649 36.8318519,15.407201 C36.8221955,11.0643439 34.734012,6.91877995 31.2830775,4.35156191 C31.2456592,4.31065965 31.2058268,4.27577243 31.1382324,4.23607319 C28.6963855,2.43156191 25.6787793,1.4390807 22.6382392,1.4390807 L22.6189266,1.4390807 C14.7852208,1.4390807 8.41082941,7.70554687 8.41082941,15.408404 C8.41082941,17.4366747 8.60757734,19.0968251 9.56234795,21.004795 C9.29076339,21.1756221 9.05780419,21.3993815 8.87795486,21.6616371 C7.95215327,22.9957724 8.38186039,25.1996822 9.21954788,26.7912612 C10.1779396,28.6114115 11.6022498,29.7482536 13.0615641,29.8685544 C14.0187488,32.1290055 15.3199406,33.8769754 17.0387691,35.2062987 C17.2391382,35.9136672 17.5638326,39.2159228 16.1974605,42.0453965 C15.2137209,44.0712612 13.5805924,45.3392311 11.3415286,45.8168251 L11.3391145,45.8168251 C10.9757947,45.8962236 10.7428355,46.2583288 10.8225003,46.6240431 C10.8925088,46.933216 11.1628863,47.1509604 11.49603,47.1533664 C11.5358624,47.1509604 11.580523,47.1449454 11.6239765,47.1365243 C15.9910562,46.2029905 17.6205636,42.9055469 18.2192567,40.3034416 C18.5173962,38.9632912 18.6236159,37.5954717 18.5330877,36.2276521 C21.070291,37.5966747 24.1687691,37.5978777 26.7035583,36.2276521 C26.6166513,37.5918627 26.721664,38.9608852 27.0185964,40.3046446 C27.6160825,42.9055469 29.2455898,46.2029905 33.6150836,47.1377273 C33.6561231,47.1449454 33.7007837,47.1509604 33.7551006,47.1533664 C34.1256626,47.1533664 34.4298373,46.8502085 34.4298373,46.4784792 C34.4298373,46.1632912 34.2053274,45.8865995 33.8951175,45.8216371 L33.8951175,45.8216371 Z" id="Fill-1"></path>
                        <path d="M46.062996,22.8073815 C45.7648565,23.1129454 45.5077564,23.5111409 45.295317,23.9983589 C45.0828775,23.5111409 44.8269845,23.1129454 44.5276379,22.8073815 C44.8269845,22.5523439 45.0828775,22.2239228 45.295317,21.8269303 C45.5077564,22.2239228 45.7648565,22.5523439 46.062996,22.8073815 M47.6599132,22.0855769 C46.1185199,21.9424191 45.9724678,19.220013 45.9712607,19.1863288 C45.9519481,18.8158025 45.638117,18.5355018 45.2615198,18.5463288 C44.9138915,18.5643739 44.6386858,18.8386597 44.6181661,19.1923439 C44.6169591,19.220013 44.472114,21.9424191 42.9319278,22.0855769 C42.5818854,22.1168551 42.3187502,22.4043739 42.3187502,22.7532461 C42.3187502,23.1033213 42.5818854,23.3896371 42.9307207,23.4209153 C44.1220717,23.531592 44.5819548,26.0398627 44.6181661,27.2392612 C44.6338577,27.6025694 44.9344113,27.8876822 45.296524,27.8876822 L45.3206648,27.8876822 C45.6719142,27.8744491 45.9579833,27.5893363 45.9712607,27.2380581 C46.007472,26.0398627 46.4673552,23.531592 47.6587061,23.4209153 C47.8385555,23.4052762 48.0002992,23.3210657 48.1161753,23.1827198 C48.2308443,23.0443739 48.2851612,22.8711409 48.2682626,22.6942987 C48.2392936,22.3706897 47.9834006,22.1144491 47.6599132,22.0855769" id="Fill-8"></path>
                        <path d="M38.3334767,35.2024365 C38.1485411,35.3364557 37.9890622,35.5111029 37.8572862,35.724795 C37.7255102,35.5111029 37.5667801,35.3364557 37.3810957,35.2024365 C37.5667801,35.0905779 37.7255102,34.9465335 37.8572862,34.772414 C37.9890622,34.9465335 38.1485411,35.0905779 38.3334767,35.2024365 M38.9924053,34.6719367 C38.2525561,34.598962 38.1824529,33.2112169 38.1818735,33.1940464 C38.1726037,33.0051708 38.0219688,32.8622876 37.8412069,32.8678067 C37.6743497,32.8770052 37.5422545,33.0168222 37.5324053,33.1971126 C37.5318259,33.2112169 37.4623021,34.598962 36.7230322,34.6719367 C36.5550164,34.6878807 36.4287148,34.8344433 36.4287148,35.0122807 C36.4287148,35.1907313 36.5550164,35.3366807 36.7224529,35.3526247 C37.2942862,35.4090421 37.5150243,36.6876318 37.5324053,37.2990246 C37.539937,37.4842208 37.6841989,37.6295569 37.8580084,37.6295569 L37.8695957,37.6295569 C38.038191,37.6228113 38.1755005,37.4774752 38.1818735,37.2984114 C38.1992545,36.6876318 38.4199926,35.4090421 38.9918259,35.3526247 C39.0781513,35.3446527 39.1557862,35.3017264 39.2114053,35.2312047 C39.266445,35.160683 39.2925164,35.0723775 39.2844053,34.9822323 C39.2705005,34.8172728 39.1476751,34.6866543 38.9924053,34.6719367" id="Fill-8-Copy"></path>
                        <path d="M27.7810852,24.1867499 L27.8197105,24.1867499 C28.8324192,24.1614867 29.8282292,23.8751709 30.7069562,23.3542687 C30.8590435,23.2568251 30.9640562,23.1064491 31.0026816,22.93081 C31.0413069,22.7551709 31.0087168,22.5747198 30.9121534,22.4255469 C30.8143829,22.2739679 30.6659167,22.1693063 30.4884815,22.129607 C30.3134603,22.0935168 30.1324039,22.123592 29.9779025,22.2210356 C29.6049264,22.441186 27.6483105,23.4721634 26.0586355,22.2523138 L26.0574285,22.2511108 C25.758082,22.0297574 25.3380312,22.0887048 25.1135213,22.3846446 C24.8926325,22.6793815 24.9517776,23.1004341 25.2438819,23.3193815 C25.9644862,23.879983 26.8625258,24.1867499 27.7810852,24.1867499" id="Fill-4"></path>
                        <path d="M14.5391048,23.3534266 L14.5475541,23.3594416 C15.4214529,23.8779378 16.4220911,24.1618476 17.440835,24.1822987 L17.4794603,24.1822987 C18.3943985,24.1822987 19.2924382,23.8743288 20.0118355,23.3161333 C20.1542665,23.2066597 20.2472088,23.0478627 20.2701426,22.8686145 C20.2930764,22.6905694 20.2460017,22.5125243 20.1349538,22.3717724 C20.02632,22.2274115 19.8669904,22.135983 19.6871411,22.1131258 C19.5048776,22.0914717 19.3298565,22.138389 19.1874255,22.2478627 C17.4468702,23.580795 15.2910923,22.2298175 15.2633303,22.2129754 C15.1100359,22.1167348 14.9265655,22.0866597 14.7527514,22.1287649 C14.5753161,22.1696672 14.4268499,22.2767348 14.3302865,22.4307198 C14.1371597,22.7410957 14.231309,23.1549303 14.5391048,23.3534266" id="Fill-6"></path>
                        <path d="M3.73941763,4.26061454 C3.44127814,4.56617845 3.18417809,4.96437394 2.97173861,5.45159198 C2.75809209,4.96317093 2.50219908,4.56497544 2.20405959,4.26061454 C2.50340612,4.00557694 2.75929913,3.67715589 2.97173861,3.28016341 C3.18417809,3.6783589 3.44127814,4.00557694 3.73941763,4.26061454 M5.34116302,3.53881003 C3.79856271,3.39565213 3.65371762,0.673246118 3.65251057,0.639561907 C3.64164719,0.45911078 3.56318943,0.294298749 3.42920771,0.17279499 C3.29643304,0.0536972457 3.13831047,-0.00765613778 2.94156255,0.000764914855 C2.59393431,0.0176070201 2.31872862,0.291892734 2.30062298,0.645576945 C2.29941594,0.673246118 2.1533638,3.39565213 0.613177585,3.53881003 C0.263135263,3.57008822 0,3.85760702 0,4.20768221 C0,4.55655439 0.263135263,4.84287018 0.611970542,4.87414837 C1.80090739,4.98482507 2.26320467,7.49309574 2.30062298,8.69129123 C2.3066582,8.87174236 2.38390892,9.0389604 2.51668359,9.16166717 C2.64221601,9.2783589 2.8039597,9.3421183 2.97535974,9.3421183 C2.98380903,9.3421183 2.99346537,9.34091529 3.00191467,9.34091529 C3.35195699,9.32768221 3.63923311,9.04256943 3.65251057,8.69129123 C3.68992889,7.49309574 4.15222616,4.98482507 5.33995597,4.87414837 C5.51859826,4.85850928 5.681549,4.77429875 5.79621803,4.63595288 C5.91209411,4.49760702 5.96520398,4.32437394 5.94951243,4.14753183 C5.92054341,3.82392281 5.66344336,3.56768221 5.34116302,3.53881003" id="Fill-11"></path>
                    </g>
                </g>
            </g>
        </g>
    </g>
</svg>