<?xml version="1.0" encoding="UTF-8"?>
<svg width="183px" height="35px" viewBox="0 0 183 35" version="1.1" xmlns="http://www.w3.org/2000/svg" xmlns:xlink="http://www.w3.org/1999/xlink">
    <title>Client Logo/ Primary Logo Facial Bar</title>
    <g id="📒-Client-Portal" stroke="none" stroke-width="1" fill="none" fill-rule="evenodd">
        <g id="Membership" transform="translate(-50.000000, -61.000000)" fill="#404040" fill-rule="nonzero">
            <g id="Client-Logo/-Primary-Logo-Facial-Bar" transform="translate(50.000000, 61.000000)">
                <path d="M5.31586328,14.9476336 C7.69732624,14.9476336 10.4674877,13.6516121 10.4674877,10.465483 C10.4674877,7.64860131 8.47654822,6.99236475 5.95274495,6.00344002 C4.29028307,5.34537551 3.48916258,4.95419271 3.50923622,4.049354 C3.52930985,3.14451529 4.24831093,2.58698841 5.25381751,2.58698841 C6.16625542,2.58698841 7.2246834,3.01838626 8.43640095,4.02741852 L10.0988628,1.84666583 C8.68275918,0.667633571 6.9983988,-0.0196782569 5.1935966,0.00042927001 C2.56577541,0.0406443238 0.512790107,1.82838626 0.512790107,4.17365508 C0.512790107,6.92838626 2.7026411,7.95752604 4.90526622,8.74354755 C6.66992115,9.33946153 7.46009238,9.73064432 7.46009238,10.7999992 C7.46009238,11.7048379 6.76116494,12.3409669 5.36695981,12.3409669 C4.21728804,12.3409669 2.82125803,11.7925798 1.73363204,10.5130099 L0,12.6444078 C1.3790548,14.1136009 3.30264456,14.9470425 5.31586328,14.9476336 M15.681158,14.7831174 L18.575411,14.7831174 L18.575411,0.185052926 L15.681158,0.185052926 L15.681158,14.7831174 Z M24.5482296,14.7831174 L33.9280914,14.7831174 L33.9280914,12.2130099 L27.4424827,12.2130099 L27.4424827,0.185052926 L24.5482296,0.185052926 L24.5482296,14.7831174 Z M46.1401604,0.185052926 L42.588952,10.6702142 L42.5469799,10.6702142 L39.0176701,0.185052926 L35.8770588,0.185052926 L41.29694,14.7831174 L43.8408169,14.7831174 L49.2387996,0.185052926 L46.1401604,0.185052926 Z M53.8977075,14.7831174 L63.6461942,14.7831174 L63.6461942,12.2130099 L56.7299148,12.2130099 L56.7299148,8.82032174 L61.9235114,8.82032174 L61.9235114,6.26118196 L56.7299148,6.26118196 L56.7299148,2.77526798 L63.2155235,2.77526798 L63.2155235,0.185052926 L53.8977075,0.185052926 L53.8977075,14.7831174 Z M80.0865005,14.7831174 L76.4750713,9.44182712 C78.3419193,8.82580561 79.4715174,7.38720346 79.4715174,5.04193465 C79.4715174,2.24698841 77.9112486,0.190536797 74.4020123,0.190536797 L68.8799381,0.190536797 L68.8799381,14.7831174 L71.732219,14.7831174 L71.732219,9.78731099 L73.4165794,9.78731099 L76.6794574,14.7831174 L80.0865005,14.7831174 Z M71.732219,2.75516045 L73.8673237,2.75516045 C75.5516841,2.75516045 76.4951449,3.63989164 76.4951449,4.97612819 C76.4951449,6.31236475 75.5297856,7.23731099 73.745057,7.23731099 L71.7376936,7.23731099 L71.732219,2.75516045 Z M103.120083,0.185052926 L98.6655613,8.49128949 L98.6235892,8.49128949 L94.1489937,0.185052926 L91.2437913,0.185052926 L91.2437913,14.7831174 L94.1088464,14.7831174 L94.1088464,5.71462282 L94.1489937,5.71462282 L97.700202,12.0009669 L99.5688749,12.0009669 L103.118258,5.70913895 L103.16023,5.70913895 L103.16023,14.7831174 L106.012511,14.7831174 L106.012511,0.185052926 L103.120083,0.185052926 Z M111.987155,14.7831174 L114.881408,14.7831174 L114.881408,0.185052926 L111.98533,0.185052926 L111.987155,14.7831174 Z M132.060789,14.7831174 L128.44571,9.44182712 C130.312558,8.82580561 131.442156,7.38720346 131.442156,5.04193465 C131.442156,2.24698841 129.881887,0.190536797 126.372651,0.190536797 L120.850577,0.190536797 L120.850577,14.7831174 L123.704683,14.7831174 L123.704683,9.78731099 L125.387218,9.78731099 L128.653746,14.7831174 L132.060789,14.7831174 Z M123.708332,2.75516045 L125.841612,2.75516045 C127.525973,2.75516045 128.469433,3.63989164 128.469433,4.97612819 C128.469433,6.31236475 127.505899,7.23731099 125.719345,7.23731099 L123.711982,7.23731099 L123.708332,2.75516045 Z M148.13247,14.7831174 L144.517391,9.44182712 C146.384239,8.82580561 147.513837,7.38720346 147.513837,5.04193465 C147.513837,2.24698841 145.953569,0.190536797 142.444332,0.190536797 L136.922258,0.190536797 L136.922258,14.7831174 L139.774539,14.7831174 L139.774539,9.78731099 L141.458899,9.78731099 L144.721777,14.7831174 L148.13247,14.7831174 Z M139.778189,2.75516045 L141.913294,2.75516045 C143.597654,2.75516045 144.541115,3.63989164 144.541115,4.97612819 C144.541115,6.31236475 143.572106,7.23731099 141.792852,7.23731099 L139.785488,7.23731099 L139.778189,2.75516045 Z M159.010555,14.9476336 C163.300838,14.9476336 166.419551,11.9443002 166.419551,7.48408518 C166.419551,3.02387013 163.297188,0.00042927001 159.006905,0.00042927001 C154.594356,0.00042927001 151.577836,3.14634325 151.577836,7.48408518 C151.577836,11.8218271 154.594356,14.9476336 159.006905,14.9476336 M159.026979,12.253225 C156.400983,12.253225 154.574282,10.1364508 154.574282,7.48408518 C154.574282,4.83171959 156.399158,2.7149454 159.026979,2.7149454 C161.532534,2.7149454 163.419455,4.72569809 163.419455,7.48408518 C163.419455,10.2424723 161.532534,12.253225 159.026979,12.253225 M182.487583,14.7831174 L178.874329,9.44182712 C180.743001,8.82580561 181.8726,7.38720346 181.8726,5.04193465 C181.8726,2.24698841 180.312331,0.190536797 176.803094,0.190536797 L171.28102,0.190536797 L171.28102,14.7831174 L174.133301,14.7831174 L174.133301,9.78731099 L175.817662,9.78731099 L179.08054,14.7831174 L182.487583,14.7831174 Z M174.133301,2.75516045 L176.268406,2.75516045 C177.950941,2.75516045 178.896227,3.63989164 178.896227,4.97612819 C178.896227,6.31236475 177.925393,7.23731099 176.144314,7.23731099 L174.136951,7.23731099 L174.133301,2.75516045 Z" id="Shape"></path>
                <path d="M53.6385752,33.9967734 L54.8210947,33.9967734 L54.8210947,30.6333325 L58.2883588,30.6333325 L58.2883588,29.5255906 L54.8210947,29.5255906 L54.8210947,26.9463432 L58.9088166,26.9463432 L58.9088166,25.8386013 L53.6385752,25.8386013 L53.6385752,33.9967734 Z M85.0264394,30.9989239 L86.3312256,27.4143002 L87.6396616,30.9989239 L85.0264394,30.9989239 Z M86.8878127,25.8386013 L85.7691639,25.8386013 L82.6924232,33.9967734 L83.944288,33.9967734 L84.6468652,32.0627949 L88.0374845,32.0627949 L88.7455363,33.9967734 L89.9974012,33.9967734 L86.9224854,25.9080637 L86.8878127,25.8386013 Z M62.3359334,30.9989239 L63.6388947,27.4143002 L64.9473307,30.9989239 L62.3359334,30.9989239 Z M64.1973067,25.8386013 L63.0750081,25.8386013 L59.9964426,33.9967734 L61.2428328,33.9967734 L61.9472348,32.0627949 L65.3305546,32.0627949 L66.0386064,33.9967734 L67.2922961,33.9967734 L64.2173804,25.9080637 L64.1973067,25.8386013 Z M78.8766079,33.9967734 L80.064602,33.9967734 L80.064602,25.8404293 L78.8766079,25.8404293 L78.8766079,33.9967734 Z M124.076957,29.8582787 L124.076957,26.9463432 L125.688323,26.9463432 C126.741276,26.9463432 127.330711,27.4581712 127.330711,28.3867734 C127.330711,29.3153755 126.702954,29.8582787 125.562406,29.8582787 L124.076957,29.8582787 Z M126.708428,30.8435475 C127.890948,30.5364508 128.533304,29.677311 128.533304,28.4068809 C128.533304,26.7745153 127.538747,25.8386013 125.80694,25.8386013 L122.887138,25.8386013 L122.887138,33.9967734 L124.067833,33.9967734 L124.067833,30.9660207 L125.387218,30.9660207 L127.411005,33.9967734 L128.839883,33.9967734 L126.708428,30.8435475 Z M72.8125455,26.9097841 C73.7097094,26.9254713 74.5505335,27.3509693 75.0954652,28.0650529 L75.1629856,28.1491389 L76.0517001,27.4069884 L75.9860046,27.3265583 C75.2254273,26.3439109 74.0538437,25.7689399 72.8125455,25.7691389 C70.3854606,25.7691389 68.7558465,27.4508594 68.7558465,29.9533325 C68.7558465,32.7866658 70.792408,34.0570959 72.8125455,34.0570959 C74.0540119,34.0726781 75.2301174,33.5009075 75.9860046,32.5143002 L76.0498752,32.4338701 L75.1629856,31.6862357 L75.0954652,31.7703217 C74.5582084,32.4922137 73.7114412,32.9166512 72.8125455,32.9146228 C71.1190607,32.9146228 69.9803382,31.7246228 69.9803382,29.9533325 C69.9803382,28.1253755 71.1190607,26.9097841 72.8125455,26.9097841 M93.7986175,25.8386013 L92.616098,25.8386013 L92.616098,33.9967734 L97.7257503,33.9967734 L97.7257503,32.8890314 L93.8022673,32.8890314 L93.7986175,25.8386013 Z M115.308429,30.9989239 L116.61139,27.4143002 L117.921651,30.9989239 L115.308429,30.9989239 Z M116.062103,25.8386013 L112.985362,33.9967734 L114.237227,33.9967734 L114.939804,32.0627949 L118.328598,32.0627949 L119.038475,33.9967734 L120.29034,33.9967734 L117.188051,25.8386013 L116.062103,25.8386013 Z M108.050898,32.8890314 L106.508878,32.8890314 L106.508878,30.3298916 L108.09287,30.3298916 C109.224293,30.3298916 109.846576,30.7960207 109.846576,31.6441927 C109.846576,32.4302142 109.191445,32.8817196 108.050898,32.8817196 M106.508878,26.9390314 L107.820963,26.9390314 C108.915889,26.9390314 109.476126,27.3192465 109.476126,28.0668809 C109.476126,29.1636551 108.355652,29.2440852 108.016225,29.2440852 L106.514352,29.2440852 L106.508878,26.9390314 Z M109.611167,29.6809669 C110.288364,29.3420373 110.705645,28.6382502 110.678719,27.8804293 C110.678719,26.5624723 109.731608,25.8349454 108.016225,25.8349454 L105.324533,25.8349454 L105.324533,33.9931174 L108.319154,33.9931174 C110.043662,33.9931174 111.074717,33.1486013 111.074717,31.7355906 C111.107793,30.7988608 110.509224,29.9564512 109.614816,29.6809669" id="Shape"></path>
            </g>
        </g>
    </g>
</svg>