<?xml version="1.0" encoding="UTF-8"?>
<svg width="226px" height="43px" viewBox="0 0 226 43" version="1.1" xmlns="http://www.w3.org/2000/svg" xmlns:xlink="http://www.w3.org/1999/xlink">
    <title>Client Logo/ Primary Logo Facial Bar</title>
    <g id="ðŸ–¥ï¸-Desktop" stroke="none" stroke-width="1" fill="none" fill-rule="evenodd">
        <g id="1.-Homepage" transform="translate(-144.000000, -7585.000000)" fill="#FFFFFF" fill-rule="nonzero">
            <g id="Footer" transform="translate(0.000000, 7487.000000)">
                <g id="Small-Square-Portion" transform="translate(122.000000, 98.000000)">
                    <g id="Client-Logo/-Primary-Logo-Facial-Bar" transform="translate(22.000000, 0.000000)">
                        <path d="M6.56665464,18.4647238 C9.50846182,18.4647238 12.930426,16.8637561 12.930426,12.9279496 C12.930426,9.44827221 10.4710301,8.63762705 7.35339082,7.41601415 C5.29976144,6.60311092 4.31014201,6.11988511 4.33493885,5.00214318 C4.3597357,3.88440124 5.2479135,3.19569157 6.49000986,3.19569157 C7.61713905,3.19569157 8.9246089,3.72859479 10.4214365,4.9750464 L12.4750658,2.28117544 C10.7257613,0.824723823 8.64508087,-0.024308435 6.41561933,0.000530274719 C3.16948727,0.0502076941 0.633446603,2.25859479 0.633446603,5.15569157 C0.633446603,8.55859479 3.33855665,9.82988511 6.05944651,10.8008529 C8.23931436,11.5369819 9.21540823,12.0202077 9.21540823,13.3411754 C9.21540823,14.4589174 8.35202728,15.2447238 6.62977388,15.2447238 C5.2095911,15.2447238 3.48508345,14.5673045 2.14154546,12.9866593 L0,15.6195625 C1.70353828,17.4344482 4.0797374,18.4639937 6.56665464,18.4647238 M19.3708422,18.261498 L22.946096,18.261498 L22.946096,0.228594791 L19.3708422,0.228594791 L19.3708422,18.261498 Z M30.3242837,18.261498 L41.9111717,18.261498 L41.9111717,15.0866593 L33.8995374,15.0866593 L33.8995374,0.228594791 L30.3242837,0.228594791 L30.3242837,18.261498 Z M56.9966687,0.228594791 L52.6098819,13.1808529 L52.558034,13.1808529 L48.1982983,0.228594791 L44.3187196,0.228594791 L51.013867,18.261498 L54.1563032,18.261498 L60.8243995,0.228594791 L56.9966687,0.228594791 Z M66.5795211,18.261498 L78.6217693,18.261498 L78.6217693,15.0866593 L70.0781301,15.0866593 L70.0781301,10.8956916 L76.4937494,10.8956916 L76.4937494,7.73440124 L70.0781301,7.73440124 L70.0781301,3.42827221 L78.0897644,3.42827221 L78.0897644,0.228594791 L66.5795211,0.228594791 L66.5795211,18.261498 Z M98.930383,18.261498 L94.4692057,11.6634335 C96.775312,10.9024658 98.170698,9.12536898 98.170698,6.22827221 C98.170698,2.77569157 96.243307,0.235368984 91.9083682,0.235368984 L85.0869823,0.235368984 L85.0869823,18.261498 L88.6103882,18.261498 L88.6103882,12.0902077 L90.6910687,12.0902077 L94.7216826,18.261498 L98.930383,18.261498 Z M88.6103882,3.4034335 L91.2478705,3.4034335 C93.328551,3.4034335 94.4940025,4.49633673 94.4940025,6.14698189 C94.4940025,7.79762705 93.3014999,8.94020769 91.0968352,8.94020769 L88.617151,8.94020769 L88.6103882,3.4034335 Z M127.383632,0.228594791 L121.880988,10.48924 L121.82914,10.48924 L116.301698,0.228594791 L112.712919,0.228594791 L112.712919,18.261498 L116.252104,18.261498 L116.252104,7.05923995 L116.301698,7.05923995 L120.688485,14.8247238 L122.996845,14.8247238 L127.381378,7.05246576 L127.433226,7.05246576 L127.433226,18.261498 L130.956632,18.261498 L130.956632,0.228594791 L127.383632,0.228594791 Z M138.337074,18.261498 L141.912327,18.261498 L141.912327,0.228594791 L138.334819,0.228594791 L138.337074,18.261498 Z M163.133916,18.261498 L158.66823,11.6634335 C160.974336,10.9024658 162.369722,9.12536898 162.369722,6.22827221 C162.369722,2.77569157 160.442331,0.235368984 156.107392,0.235368984 L149.286007,0.235368984 L149.286007,18.261498 L152.811667,18.261498 L152.811667,12.0902077 L154.890093,12.0902077 L158.925215,18.261498 L163.133916,18.261498 Z M152.816175,3.4034335 L155.451403,3.4034335 C157.532084,3.4034335 158.697535,4.49633673 158.697535,6.14698189 C158.697535,7.79762705 157.507287,8.94020769 155.300368,8.94020769 L152.820684,8.94020769 L152.816175,3.4034335 Z M182.987169,18.261498 L178.521483,11.6634335 C180.82759,10.9024658 182.222976,9.12536898 182.222976,6.22827221 C182.222976,2.77569157 180.295585,0.235368984 175.960646,0.235368984 L169.13926,0.235368984 L169.13926,18.261498 L172.662666,18.261498 L172.662666,12.0902077 L174.743346,12.0902077 L178.77396,18.261498 L182.987169,18.261498 Z M172.667174,3.4034335 L175.304657,3.4034335 C177.385337,3.4034335 178.550789,4.49633673 178.550789,6.14698189 C178.550789,7.79762705 177.353778,8.94020769 175.155876,8.94020769 L172.676191,8.94020769 L172.667174,3.4034335 Z M196.424803,18.4647238 C201.724565,18.4647238 205.577092,14.7547238 205.577092,9.2450464 C205.577092,3.73536898 201.720056,0.000530274719 196.420295,0.000530274719 C190.969498,0.000530274719 187.243209,3.88665931 187.243209,9.2450464 C187.243209,14.6034335 190.969498,18.4647238 196.420295,18.4647238 M196.445092,15.1363367 C193.201214,15.1363367 190.944701,12.521498 190.944701,9.2450464 C190.944701,5.96859479 193.19896,3.35375608 196.445092,3.35375608 C199.540189,3.35375608 201.871092,5.83762705 201.871092,9.2450464 C201.871092,12.6524658 199.540189,15.1363367 196.445092,15.1363367 M225.425837,18.261498 L220.962406,11.6634335 C223.270766,10.9024658 224.666152,9.12536898 224.666152,6.22827221 C224.666152,2.77569157 222.738761,0.235368984 218.403823,0.235368984 L211.582437,0.235368984 L211.582437,18.261498 L215.105843,18.261498 L215.105843,12.0902077 L217.186523,12.0902077 L221.217137,18.261498 L225.425837,18.261498 Z M215.105843,3.4034335 L217.743325,3.4034335 C219.821751,3.4034335 220.989457,4.49633673 220.989457,6.14698189 C220.989457,7.79762705 219.790192,8.94020769 217.590035,8.94020769 L215.110351,8.94020769 L215.105843,3.4034335 Z" id="Shape"></path>
                        <path d="M66.2594164,41.9960141 L67.7201758,41.9960141 L67.7201758,37.8411754 L72.0032667,37.8411754 L72.0032667,36.4727883 L67.7201758,36.4727883 L67.7201758,33.2866593 L72.7697146,33.2866593 L72.7697146,31.9182722 L66.2594164,31.9182722 L66.2594164,41.9960141 Z M105.03266,38.2927883 L106.644455,33.8647238 L108.260758,38.2927883 L105.03266,38.2927883 Z M107.332004,31.9182722 L105.950144,31.9182722 L102.149464,41.9960141 L103.695885,41.9960141 L104.563775,39.6069819 L108.752187,39.6069819 L109.626839,41.9960141 L111.17326,41.9960141 L107.374835,32.0040787 L107.332004,31.9182722 Z M77.0032118,38.2927883 L78.6127523,33.8647238 L80.2290555,38.2927883 L77.0032118,38.2927883 Z M79.3025554,31.9182722 L77.9161865,31.9182722 L74.1132526,41.9960141 L75.652911,41.9960141 L76.5230548,39.6069819 L80.7024498,39.6069819 L81.5771021,41.9960141 L83.1257776,41.9960141 L79.3273522,32.0040787 L79.3025554,31.9182722 Z M97.4358097,41.9960141 L98.9033319,41.9960141 L98.9033319,31.9205303 L97.4358097,31.9205303 L97.4358097,41.9960141 Z M153.271535,36.8837561 L153.271535,33.2866593 L155.262046,33.2866593 C156.562753,33.2866593 157.290878,33.9189174 157.290878,35.0660141 C157.290878,36.2131109 156.515413,36.8837561 155.106502,36.8837561 L153.271535,36.8837561 Z M156.522176,38.1008529 C157.982935,37.721498 158.776434,36.6602077 158.776434,35.0908529 C158.776434,33.0744012 157.547864,31.9182722 155.408572,31.9182722 L151.801759,31.9182722 L151.801759,41.9960141 L153.260264,41.9960141 L153.260264,38.2521432 L154.890093,38.2521432 L157.390065,41.9960141 L159.15515,41.9960141 L156.522176,38.1008529 Z M89.9449091,33.241498 C91.0531705,33.2608763 92.0918355,33.7864915 92.7649864,34.6685948 L92.8483939,34.7724658 L93.9462178,33.8556916 L93.8650645,33.7563367 C92.9255278,32.5424781 91.4782775,31.8322198 89.9449091,31.8324657 C86.9467455,31.8324657 84.9336928,33.9098851 84.9336928,37.0011754 C84.9336928,40.5011754 87.4494451,42.0705303 89.9449091,42.0705303 C91.4784852,42.0897789 92.9313215,41.383474 93.8650645,40.1647238 L93.9439635,40.065369 L92.8483939,39.1418206 L92.7649864,39.2456916 C92.1013162,40.1374405 91.0553097,40.6617456 89.9449091,40.65924 C87.8529574,40.65924 86.4463001,39.18924 86.4463001,37.0011754 C86.4463001,34.7431109 87.8529574,33.241498 89.9449091,33.241498 M115.86888,31.9182722 L114.408121,31.9182722 L114.408121,41.9960141 L120.720044,41.9960141 L120.720044,40.627627 L115.873389,40.627627 L115.86888,31.9182722 Z M142.439824,38.2927883 L144.049364,33.8647238 L145.667922,38.2927883 L142.439824,38.2927883 Z M143.370833,31.9182722 L139.570153,41.9960141 L141.116574,41.9960141 L141.984464,39.6069819 L146.170622,39.6069819 L147.047528,41.9960141 L148.593949,41.9960141 L144.76171,31.9182722 L143.370833,31.9182722 Z M133.474638,40.627627 L131.56979,40.627627 L131.56979,37.4663367 L133.526486,37.4663367 C134.924126,37.4663367 135.692829,38.0421432 135.692829,39.0898851 C135.692829,40.0608529 134.88355,40.6185948 133.474638,40.6185948 M131.56979,33.277627 L133.190602,33.277627 C134.543157,33.277627 135.235214,33.7473045 135.235214,34.6708529 C135.235214,36.0256916 133.8511,36.1250464 133.431807,36.1250464 L131.576553,36.1250464 L131.56979,33.277627 Z M135.402029,36.6647238 C136.238568,36.2460461 136.754032,35.3766621 136.72077,34.4405303 C136.72077,32.8124658 135.55081,31.9137561 133.431807,31.9137561 L130.106776,31.9137561 L130.106776,41.991498 L133.806014,41.991498 C135.936288,41.991498 137.209944,40.9482722 137.209944,39.2027883 C137.250803,38.0456515 136.511394,37.0050279 135.406538,36.6647238" id="Shape"></path>
                    </g>
                </g>
            </g>
        </g>
    </g>
</svg>